<svg width="464" height="57" viewBox="0 0 464 57" fill="none" xmlns="http://www.w3.org/2000/svg">
<path d="M26.2145 5.14286C26.2145 8.0558 25.6202 10.6311 24.4316 12.8689C23.243 15.1066 21.7558 16.817 19.9701 18C21.7558 19.183 23.243 20.8934 24.4316 23.1311C25.6202 25.3689 26.2145 27.9442 26.2145 30.8571H27.8216C27.9779 30.8571 28.1062 30.9074 28.2067 31.0078C28.3071 31.1083 28.3574 31.2366 28.3574 31.3929V32.4643C28.3574 32.6205 28.3071 32.7489 28.2067 32.8493C28.1062 32.9498 27.9779 33 27.8216 33H3.17878C3.02253 33 2.89418 32.9498 2.79374 32.8493C2.69329 32.7489 2.64307 32.6205 2.64307 32.4643V31.3929C2.64307 31.2366 2.69329 31.1083 2.79374 31.0078C2.89418 30.9074 3.02253 30.8571 3.17878 30.8571H4.78592C4.78592 27.9442 5.38023 25.3689 6.56885 23.1311C7.75746 20.8934 9.24463 19.183 11.0303 18C9.24463 16.817 7.75746 15.1066 6.56885 12.8689C5.38023 10.6311 4.78592 8.0558 4.78592 5.14286H3.17878C3.02253 5.14286 2.89418 5.09263 2.79374 4.99219C2.69329 4.89174 2.64307 4.76339 2.64307 4.60714V3.53571C2.64307 3.37946 2.69329 3.25112 2.79374 3.15067C2.89418 3.05022 3.02253 3 3.17878 3H27.8216C27.9779 3 28.1062 3.05022 28.2067 3.15067C28.3071 3.25112 28.3574 3.37946 28.3574 3.53571V4.60714C28.3574 4.76339 28.3071 4.89174 28.2067 4.99219C28.1062 5.09263 27.9779 5.14286 27.8216 5.14286H26.2145ZM17.2748 16.9955C18.1341 16.6719 18.9656 16.1557 19.7692 15.447C20.5728 14.7383 21.2954 13.8873 21.9372 12.894C22.5789 11.9007 23.0951 10.7288 23.4857 9.37835C23.8763 8.0279 24.0716 6.61607 24.0716 5.14286H6.92878C6.92878 6.61607 7.12409 8.0279 7.51472 9.37835C7.90534 10.7288 8.42153 11.9007 9.06327 12.894C9.70501 13.8873 10.4277 14.7383 11.2312 15.447C12.0348 16.1557 12.8663 16.6719 13.7257 16.9955C13.9377 17.0737 14.1079 17.2048 14.2363 17.389C14.3646 17.5731 14.4288 17.7768 14.4288 18C14.4288 18.2232 14.3646 18.4269 14.2363 18.611C14.1079 18.7952 13.9377 18.9263 13.7257 19.0045C12.1966 19.5737 10.835 20.6674 9.64083 22.2857H21.3596C20.1654 20.6674 18.8038 19.5737 17.2748 19.0045C17.0627 18.9263 16.8925 18.7952 16.7642 18.611C16.6358 18.4269 16.5716 18.2232 16.5716 18C16.5716 17.7768 16.6358 17.5731 16.7642 17.389C16.8925 17.2048 17.0627 17.0737 17.2748 16.9955Z" fill="#431F17"/>
<path d="M41.5043 14V3.81818H45.3224C46.1046 3.81818 46.7609 3.96401 47.2912 4.25568C47.8248 4.54735 48.2275 4.94839 48.4993 5.45881C48.7744 5.96591 48.9119 6.54261 48.9119 7.18892C48.9119 7.84186 48.7744 8.42187 48.4993 8.92898C48.2242 9.43608 47.8182 9.83546 47.2812 10.1271C46.7443 10.4155 46.0831 10.5597 45.2976 10.5597H42.767V9.04332H45.049C45.5064 9.04332 45.8809 8.96378 46.1726 8.80469C46.4643 8.6456 46.6797 8.42685 46.8189 8.14844C46.9614 7.87003 47.0327 7.55019 47.0327 7.18892C47.0327 6.82765 46.9614 6.50947 46.8189 6.23438C46.6797 5.95928 46.4626 5.7455 46.1676 5.59304C45.8759 5.43726 45.4998 5.35938 45.0391 5.35938H43.3487V14H41.5043ZM50.4345 14V6.36364H52.1795V7.63636H52.2591C52.3983 7.19555 52.6369 6.85582 52.975 6.61719C53.3163 6.37524 53.7058 6.25426 54.1433 6.25426C54.2427 6.25426 54.3538 6.25923 54.4764 6.26918C54.6023 6.2758 54.7067 6.2874 54.7896 6.30398V7.95952C54.7134 7.933 54.5924 7.9098 54.4267 7.88991C54.2643 7.86671 54.1068 7.85511 53.9544 7.85511C53.6262 7.85511 53.3313 7.92637 53.0694 8.06889C52.8109 8.2081 52.6071 8.40199 52.4579 8.65057C52.3088 8.89915 52.2342 9.18584 52.2342 9.51065V14H50.4345ZM59.0018 14.1491C58.256 14.1491 57.6097 13.9851 57.0629 13.657C56.516 13.3288 56.0917 12.8698 55.7901 12.2798C55.4918 11.6899 55.3427 11.0005 55.3427 10.2116C55.3427 9.42282 55.4918 8.73177 55.7901 8.13849C56.0917 7.54522 56.516 7.08452 57.0629 6.75639C57.6097 6.42827 58.256 6.2642 59.0018 6.2642C59.7475 6.2642 60.3938 6.42827 60.9407 6.75639C61.4876 7.08452 61.9102 7.54522 62.2085 8.13849C62.5101 8.73177 62.6609 9.42282 62.6609 10.2116C62.6609 11.0005 62.5101 11.6899 62.2085 12.2798C61.9102 12.8698 61.4876 13.3288 60.9407 13.657C60.3938 13.9851 59.7475 14.1491 59.0018 14.1491ZM59.0117 12.7074C59.4161 12.7074 59.7541 12.5964 60.0259 12.3743C60.2977 12.1489 60.4999 11.8473 60.6325 11.4695C60.7683 11.0916 60.8363 10.6707 60.8363 10.2067C60.8363 9.73935 60.7683 9.31676 60.6325 8.93892C60.4999 8.55777 60.2977 8.2545 60.0259 8.02912C59.7541 7.80374 59.4161 7.69105 59.0117 7.69105C58.5974 7.69105 58.2527 7.80374 57.9776 8.02912C57.7058 8.2545 57.502 8.55777 57.3661 8.93892C57.2335 9.31676 57.1673 9.73935 57.1673 10.2067C57.1673 10.6707 57.2335 11.0916 57.3661 11.4695C57.502 11.8473 57.7058 12.1489 57.9776 12.3743C58.2527 12.5964 58.5974 12.7074 59.0117 12.7074ZM64.1884 6.36364H65.9881V14.4375C65.9881 14.9877 65.8837 15.4418 65.6749 15.7997C65.4661 16.1577 65.1645 16.4245 64.7701 16.6001C64.3757 16.7758 63.8967 16.8636 63.3333 16.8636C63.267 16.8636 63.2057 16.862 63.1493 16.8587C63.093 16.8587 63.0317 16.857 62.9654 16.8537V15.3871C63.0151 15.3904 63.0598 15.392 63.0996 15.392C63.1394 15.3954 63.1808 15.397 63.2239 15.397C63.5686 15.397 63.8155 15.3125 63.9647 15.1435C64.1138 14.9777 64.1884 14.7341 64.1884 14.4126V6.36364ZM65.0833 5.27983C64.7949 5.27983 64.548 5.18537 64.3425 4.99645C64.1403 4.80421 64.0392 4.57386 64.0392 4.3054C64.0392 4.03362 64.1403 3.80327 64.3425 3.61435C64.548 3.42211 64.7949 3.32599 65.0833 3.32599C65.3683 3.32599 65.6119 3.42211 65.8141 3.61435C66.0196 3.80327 66.1223 4.03362 66.1223 4.3054C66.1223 4.57386 66.0196 4.80421 65.8141 4.99645C65.6119 5.18537 65.3683 5.27983 65.0833 5.27983ZM71.2195 14.1491C70.4538 14.1491 69.7926 13.9901 69.2358 13.6719C68.6823 13.3504 68.2564 12.8963 67.9581 12.3097C67.6598 11.7197 67.5107 11.0253 67.5107 10.2266C67.5107 9.44105 67.6598 8.75166 67.9581 8.15838C68.2597 7.56179 68.6806 7.09777 69.2209 6.76633C69.7611 6.43158 70.3958 6.2642 71.125 6.2642C71.5956 6.2642 72.0398 6.34044 72.4574 6.4929C72.8783 6.64205 73.2495 6.87405 73.571 7.18892C73.8958 7.50379 74.151 7.90483 74.3366 8.39205C74.5223 8.87595 74.6151 9.45265 74.6151 10.1222V10.674H68.3558V9.46094H72.8899C72.8866 9.11624 72.812 8.80966 72.6662 8.54119C72.5204 8.26941 72.3165 8.05563 72.0547 7.89986C71.7962 7.74408 71.4946 7.66619 71.1499 7.66619C70.782 7.66619 70.4588 7.75568 70.1804 7.93466C69.902 8.11032 69.6849 8.34233 69.5291 8.63068C69.3767 8.91572 69.2988 9.22893 69.2955 9.57031V10.6293C69.2955 11.0734 69.3767 11.4545 69.5391 11.7727C69.7015 12.0876 69.9285 12.3295 70.2202 12.4986C70.5118 12.6643 70.8532 12.7472 71.2443 12.7472C71.5062 12.7472 71.7431 12.7107 71.9553 12.6378C72.1674 12.5616 72.3513 12.4505 72.5071 12.3047C72.6629 12.1589 72.7805 11.9782 72.8601 11.7628L74.5405 11.9517C74.4344 12.3958 74.2322 12.7836 73.9339 13.1151C73.639 13.4432 73.2611 13.6984 72.8004 13.8807C72.3397 14.0597 71.8127 14.1491 71.2195 14.1491ZM79.4686 14.1491C78.7063 14.1491 78.0517 13.9818 77.5048 13.647C76.9612 13.3123 76.542 12.8499 76.247 12.2599C75.9553 11.6667 75.8095 10.9839 75.8095 10.2116C75.8095 9.43608 75.9586 8.75166 76.2569 8.15838C76.5552 7.56179 76.9761 7.09777 77.5197 6.76633C78.0666 6.43158 78.7129 6.2642 79.4586 6.2642C80.0784 6.2642 80.627 6.37855 81.1042 6.60724C81.5848 6.83262 81.9676 7.15246 82.2527 7.56676C82.5377 7.97775 82.7001 8.45833 82.7399 9.00852H81.0197C80.9501 8.64062 80.7844 8.33404 80.5225 8.08878C80.264 7.8402 79.9177 7.71591 79.4835 7.71591C79.1156 7.71591 78.7924 7.81534 78.514 8.0142C78.2356 8.20975 78.0185 8.49148 77.8627 8.85938C77.7103 9.22727 77.6341 9.66809 77.6341 10.1818C77.6341 10.7022 77.7103 11.1496 77.8627 11.5241C78.0152 11.8954 78.229 12.1821 78.5041 12.3842C78.7825 12.5831 79.109 12.6825 79.4835 12.6825C79.7486 12.6825 79.9856 12.6328 80.1944 12.5334C80.4065 12.4306 80.5839 12.2831 80.7264 12.0909C80.8689 11.8987 80.9667 11.665 81.0197 11.3899H82.7399C82.6968 11.9302 82.5377 12.4091 82.2626 12.8267C81.9875 13.241 81.613 13.5658 81.139 13.8011C80.6651 14.0331 80.1083 14.1491 79.4686 14.1491ZM88.0309 6.36364V7.75568H83.641V6.36364H88.0309ZM84.7248 4.53409H86.5245V11.7031C86.5245 11.9451 86.561 12.1307 86.6339 12.2599C86.7101 12.3859 86.8095 12.4721 86.9322 12.5185C87.0548 12.5649 87.1907 12.5881 87.3398 12.5881C87.4525 12.5881 87.5553 12.5798 87.6481 12.5632C87.7442 12.5466 87.8171 12.5317 87.8668 12.5185L88.1701 13.9254C88.074 13.9586 87.9364 13.995 87.7575 14.0348C87.5818 14.0746 87.3664 14.0978 87.1112 14.1044C86.6604 14.1177 86.2544 14.0497 85.8931 13.9006C85.5318 13.7481 85.2451 13.5128 85.033 13.1946C84.8242 12.8764 84.7215 12.4787 84.7248 12.0014V4.53409ZM96.5385 14H93.0882V3.81818H96.6081C97.619 3.81818 98.4874 4.02202 99.2132 4.42969C99.9424 4.83404 100.503 5.41572 100.894 6.17472C101.285 6.93371 101.48 7.84186 101.48 8.89915C101.48 9.95975 101.283 10.8712 100.889 11.6335C100.498 12.3958 99.9325 12.9808 99.1934 13.3885C98.4576 13.7962 97.5726 14 96.5385 14ZM94.9327 12.4041H96.449C97.1583 12.4041 97.7499 12.2749 98.2239 12.0163C98.6979 11.7545 99.0542 11.3651 99.2928 10.848C99.5314 10.3277 99.6507 9.67803 99.6507 8.89915C99.6507 8.12026 99.5314 7.47396 99.2928 6.96023C99.0542 6.44318 98.7012 6.05706 98.2338 5.80185C97.7698 5.54332 97.1931 5.41406 96.5037 5.41406H94.9327V12.4041ZM108.02 10.7884V6.36364H109.82V14H108.075V12.6428H107.996C107.823 13.0703 107.54 13.42 107.145 13.6918C106.754 13.9635 106.272 14.0994 105.699 14.0994C105.198 14.0994 104.756 13.9884 104.371 13.7663C103.99 13.541 103.692 13.2145 103.476 12.7869C103.261 12.3561 103.153 11.8357 103.153 11.2259V6.36364H104.953V10.9474C104.953 11.4313 105.086 11.8158 105.351 12.1009C105.616 12.3859 105.964 12.5284 106.395 12.5284C106.66 12.5284 106.917 12.4638 107.165 12.3345C107.414 12.2053 107.618 12.013 107.777 11.7578C107.939 11.4993 108.02 11.1761 108.02 10.7884ZM111.671 14V6.36364H113.416V7.63636H113.495C113.635 7.19555 113.873 6.85582 114.211 6.61719C114.553 6.37524 114.942 6.25426 115.38 6.25426C115.479 6.25426 115.59 6.25923 115.713 6.26918C115.839 6.2758 115.943 6.2874 116.026 6.30398V7.95952C115.95 7.933 115.829 7.9098 115.663 7.88991C115.501 7.86671 115.343 7.85511 115.191 7.85511C114.863 7.85511 114.568 7.92637 114.306 8.06889C114.047 8.2081 113.843 8.40199 113.694 8.65057C113.545 8.89915 113.471 9.18584 113.471 9.51065V14H111.671ZM119.282 14.1541C118.798 14.1541 118.363 14.0679 117.975 13.8956C117.59 13.7199 117.285 13.4614 117.06 13.12C116.838 12.7786 116.727 12.3577 116.727 11.8572C116.727 11.4264 116.806 11.0701 116.966 10.7884C117.125 10.5066 117.342 10.2812 117.617 10.1122C117.892 9.94318 118.202 9.81558 118.547 9.7294C118.895 9.63991 119.254 9.57528 119.625 9.53551C120.073 9.48911 120.436 9.44768 120.714 9.41122C120.993 9.37145 121.195 9.31179 121.321 9.23224C121.45 9.14938 121.515 9.02178 121.515 8.84943V8.8196C121.515 8.44508 121.404 8.15507 121.181 7.94957C120.959 7.74408 120.64 7.64134 120.222 7.64134C119.781 7.64134 119.431 7.73745 119.173 7.92969C118.918 8.12192 118.745 8.34896 118.656 8.6108L116.975 8.37216C117.108 7.90814 117.327 7.52036 117.632 7.20881C117.937 6.89394 118.31 6.65862 118.75 6.50284C119.191 6.34375 119.678 6.2642 120.212 6.2642C120.58 6.2642 120.946 6.30729 121.311 6.39347C121.675 6.47964 122.008 6.62216 122.31 6.82102C122.612 7.01657 122.854 7.28338 123.036 7.62145C123.221 7.95952 123.314 8.3821 123.314 8.8892V14H121.584V12.951H121.525C121.415 13.1631 121.261 13.362 121.062 13.5476C120.867 13.7299 120.62 13.8774 120.321 13.9901C120.026 14.0994 119.68 14.1541 119.282 14.1541ZM119.75 12.8317C120.111 12.8317 120.424 12.7604 120.689 12.6179C120.954 12.4721 121.158 12.2798 121.301 12.0412C121.447 11.8026 121.52 11.5424 121.52 11.2607V10.3608C121.463 10.4072 121.367 10.4503 121.231 10.4901C121.099 10.5298 120.949 10.5646 120.784 10.5945C120.618 10.6243 120.454 10.6508 120.292 10.674C120.129 10.6972 119.988 10.7171 119.869 10.7337C119.6 10.7701 119.36 10.8298 119.148 10.9126C118.936 10.9955 118.769 11.1115 118.646 11.2607C118.523 11.4065 118.462 11.5954 118.462 11.8274C118.462 12.1589 118.583 12.4091 118.825 12.5781C119.067 12.7472 119.375 12.8317 119.75 12.8317ZM128.937 6.36364V7.75568H124.547V6.36364H128.937ZM125.631 4.53409H127.431V11.7031C127.431 11.9451 127.467 12.1307 127.54 12.2599C127.616 12.3859 127.716 12.4721 127.838 12.5185C127.961 12.5649 128.097 12.5881 128.246 12.5881C128.359 12.5881 128.462 12.5798 128.554 12.5632C128.65 12.5466 128.723 12.5317 128.773 12.5185L129.076 13.9254C128.98 13.9586 128.843 13.995 128.664 14.0348C128.488 14.0746 128.273 14.0978 128.017 14.1044C127.567 14.1177 127.161 14.0497 126.799 13.9006C126.438 13.7481 126.151 13.5128 125.939 13.1946C125.73 12.8764 125.628 12.4787 125.631 12.0014V4.53409ZM130.442 14V6.36364H132.242V14H130.442ZM131.347 5.27983C131.062 5.27983 130.817 5.18537 130.611 4.99645C130.406 4.80421 130.303 4.57386 130.303 4.3054C130.303 4.03362 130.406 3.80327 130.611 3.61435C130.817 3.42211 131.062 3.32599 131.347 3.32599C131.635 3.32599 131.881 3.42211 132.083 3.61435C132.288 3.80327 132.391 4.03362 132.391 4.3054C132.391 4.57386 132.288 4.80421 132.083 4.99645C131.881 5.18537 131.635 5.27983 131.347 5.27983ZM137.424 14.1491C136.678 14.1491 136.032 13.9851 135.485 13.657C134.938 13.3288 134.514 12.8698 134.212 12.2798C133.914 11.6899 133.765 11.0005 133.765 10.2116C133.765 9.42282 133.914 8.73177 134.212 8.13849C134.514 7.54522 134.938 7.08452 135.485 6.75639C136.032 6.42827 136.678 6.2642 137.424 6.2642C138.169 6.2642 138.816 6.42827 139.363 6.75639C139.909 7.08452 140.332 7.54522 140.63 8.13849C140.932 8.73177 141.083 9.42282 141.083 10.2116C141.083 11.0005 140.932 11.6899 140.63 12.2798C140.332 12.8698 139.909 13.3288 139.363 13.657C138.816 13.9851 138.169 14.1491 137.424 14.1491ZM137.434 12.7074C137.838 12.7074 138.176 12.5964 138.448 12.3743C138.72 12.1489 138.922 11.8473 139.054 11.4695C139.19 11.0916 139.258 10.6707 139.258 10.2067C139.258 9.73935 139.19 9.31676 139.054 8.93892C138.922 8.55777 138.72 8.2545 138.448 8.02912C138.176 7.80374 137.838 7.69105 137.434 7.69105C137.019 7.69105 136.675 7.80374 136.4 8.02912C136.128 8.2545 135.924 8.55777 135.788 8.93892C135.655 9.31676 135.589 9.73935 135.589 10.2067C135.589 10.6707 135.655 11.0916 135.788 11.4695C135.924 11.8473 136.128 12.1489 136.4 12.3743C136.675 12.5964 137.019 12.7074 137.434 12.7074ZM144.41 9.52557V14H142.61V6.36364H144.33V7.66122H144.42C144.596 7.23366 144.876 6.89394 145.26 6.64205C145.648 6.39015 146.127 6.2642 146.697 6.2642C147.224 6.2642 147.683 6.37689 148.074 6.60227C148.468 6.82765 148.773 7.15412 148.989 7.58168C149.208 8.00923 149.315 8.52794 149.312 9.13778V14H147.512V9.41619C147.512 8.90578 147.38 8.50639 147.115 8.21804C146.853 7.92969 146.49 7.78551 146.026 7.78551C145.711 7.78551 145.431 7.85511 145.186 7.99432C144.944 8.13021 144.753 8.32741 144.614 8.58594C144.478 8.84446 144.41 9.15767 144.41 9.52557Z" fill="black" fill-opacity="0.9"/>
<path d="M45.1335 26.8182V37H43.9006V28.1108H43.8409L41.3551 29.7614V28.5085L43.9006 26.8182H45.1335ZM51.2436 37.1392C50.6603 37.1392 50.1349 37.0232 49.6676 36.7912C49.2003 36.5592 48.8258 36.241 48.544 35.8366C48.2623 35.4323 48.1082 34.9716 48.0817 34.4545H49.2749C49.3213 34.9152 49.5301 35.2964 49.9013 35.598C50.2758 35.8963 50.7232 36.0455 51.2436 36.0455C51.6612 36.0455 52.0324 35.9477 52.3572 35.7521C52.6854 35.5566 52.9422 35.2881 53.1278 34.9467C53.3168 34.602 53.4112 34.2126 53.4112 33.7784C53.4112 33.3343 53.3134 32.9382 53.1179 32.5902C52.9257 32.2389 52.6605 31.9621 52.3224 31.7599C51.9844 31.5578 51.5982 31.455 51.1641 31.4517C50.8525 31.4484 50.5327 31.4964 50.2045 31.5959C49.8764 31.692 49.6063 31.8163 49.3942 31.9688L48.2408 31.8295L48.8572 26.8182H54.147V27.9119H49.8913L49.5334 30.9148H49.593C49.8018 30.7491 50.0637 30.6115 50.3786 30.5021C50.6934 30.3928 51.0215 30.3381 51.3629 30.3381C51.986 30.3381 52.5412 30.4872 53.0284 30.7855C53.5189 31.0805 53.9034 31.4848 54.1818 31.9986C54.4635 32.5123 54.6044 33.099 54.6044 33.7585C54.6044 34.4081 54.4586 34.9882 54.1669 35.4986C53.8786 36.0057 53.4808 36.4067 52.9737 36.7017C52.4666 36.9934 51.8899 37.1392 51.2436 37.1392ZM59.9203 29.3636V30.358H55.9629V29.3636H59.9203ZM57.1163 27.5341H58.2896V34.8125C58.2896 35.1439 58.3377 35.3925 58.4338 35.5582C58.5332 35.7206 58.6592 35.83 58.8116 35.8864C58.9674 35.9394 59.1315 35.9659 59.3038 35.9659C59.4331 35.9659 59.5391 35.9593 59.622 35.946C59.7048 35.9295 59.7711 35.9162 59.8208 35.9062L60.0595 36.9602C59.9799 36.9901 59.8689 37.0199 59.7264 37.0497C59.5839 37.0829 59.4032 37.0994 59.1845 37.0994C58.853 37.0994 58.5282 37.0282 58.21 36.8857C57.8952 36.7431 57.6333 36.526 57.4245 36.2344C57.219 35.9427 57.1163 35.5748 57.1163 35.1307V27.5341ZM63.0225 32.4062V37H61.8493V26.8182H63.0225V30.5568H63.122C63.301 30.1624 63.5694 29.8492 63.9274 29.6172C64.2886 29.3819 64.7692 29.2642 65.3691 29.2642C65.8895 29.2642 66.3452 29.3686 66.7363 29.5774C67.1274 29.7829 67.4307 30.0994 67.6461 30.527C67.8649 30.9512 67.9743 31.4915 67.9743 32.1477V37H66.801V32.2273C66.801 31.6207 66.6435 31.1518 66.3287 30.8203C66.0171 30.4856 65.5846 30.3182 65.0311 30.3182C64.6466 30.3182 64.3019 30.3994 63.997 30.5618C63.6954 30.7242 63.4567 30.9612 63.2811 31.2727C63.1087 31.5843 63.0225 31.9621 63.0225 32.4062ZM77.3594 37H74.2173V26.8182H77.4986C78.4863 26.8182 79.3314 27.022 80.0341 27.4297C80.7367 27.834 81.2753 28.4157 81.6499 29.1747C82.0244 29.9304 82.2116 30.8352 82.2116 31.8892C82.2116 32.9498 82.0227 33.8629 81.6449 34.6286C81.267 35.3909 80.7169 35.9775 79.9943 36.3885C79.2718 36.7962 78.3935 37 77.3594 37ZM75.4503 35.9062H77.2798C78.1217 35.9062 78.8194 35.7438 79.3729 35.419C79.9264 35.0942 80.339 34.6319 80.6108 34.032C80.8826 33.4321 81.0185 32.7178 81.0185 31.8892C81.0185 31.0672 80.8842 30.3596 80.6158 29.7663C80.3473 29.1697 79.9463 28.7124 79.4126 28.3942C78.879 28.0727 78.2145 27.9119 77.419 27.9119H75.4503V35.9062ZM87.3224 37.1591C86.5866 37.1591 85.9519 36.9967 85.4183 36.6719C84.888 36.3438 84.4787 35.8864 84.1903 35.2997C83.9053 34.7098 83.7628 34.0237 83.7628 33.2415C83.7628 32.4593 83.9053 31.7699 84.1903 31.1733C84.4787 30.5734 84.8797 30.1061 85.3935 29.7713C85.9105 29.4332 86.5137 29.2642 87.2031 29.2642C87.6009 29.2642 87.9936 29.3305 88.3814 29.4631C88.7692 29.5956 89.1222 29.8111 89.4403 30.1094C89.7585 30.4044 90.0121 30.7955 90.201 31.2827C90.3899 31.7699 90.4844 32.3698 90.4844 33.0824V33.5795H84.598V32.5653H89.2912C89.2912 32.1345 89.205 31.75 89.0327 31.4119C88.8636 31.0739 88.6217 30.8071 88.3068 30.6115C87.9953 30.416 87.6274 30.3182 87.2031 30.3182C86.7358 30.3182 86.3314 30.4342 85.9901 30.6662C85.652 30.8949 85.3918 31.1932 85.2095 31.5611C85.0272 31.929 84.9361 32.3234 84.9361 32.7443V33.4205C84.9361 33.9972 85.0355 34.486 85.2344 34.8871C85.4366 35.2848 85.7166 35.5881 86.0746 35.7969C86.4325 36.0024 86.8485 36.1051 87.3224 36.1051C87.6307 36.1051 87.9091 36.062 88.1577 35.9759C88.4096 35.8864 88.6267 35.7538 88.8089 35.5781C88.9912 35.3991 89.1321 35.1771 89.2315 34.9119L90.3651 35.2301C90.2457 35.6146 90.0452 35.9527 89.7635 36.2443C89.4818 36.5327 89.1338 36.758 88.7195 36.9205C88.3052 37.0795 87.8395 37.1591 87.3224 37.1591ZM95.3714 37.1591C94.6555 37.1591 94.0391 36.9901 93.522 36.652C93.005 36.3139 92.6072 35.8482 92.3288 35.255C92.0504 34.6617 91.9112 33.9839 91.9112 33.2216C91.9112 32.446 92.0537 31.7616 92.3388 31.1683C92.6271 30.5717 93.0282 30.1061 93.5419 29.7713C94.0589 29.4332 94.6622 29.2642 95.3516 29.2642C95.8885 29.2642 96.3724 29.3636 96.8033 29.5625C97.2341 29.7614 97.5871 30.0398 97.8622 30.3977C98.1373 30.7557 98.308 31.1733 98.3743 31.6506H97.201C97.1115 31.3026 96.9126 30.9943 96.6044 30.7259C96.2995 30.4541 95.8885 30.3182 95.3714 30.3182C94.9141 30.3182 94.513 30.4375 94.1683 30.6761C93.8269 30.9115 93.5601 31.2446 93.3679 31.6754C93.179 32.103 93.0845 32.6051 93.0845 33.1818C93.0845 33.7718 93.1773 34.2855 93.3629 34.723C93.5518 35.1605 93.817 35.5002 94.1584 35.7422C94.5031 35.9841 94.9074 36.1051 95.3714 36.1051C95.6764 36.1051 95.9531 36.0521 96.2017 35.946C96.4503 35.84 96.6607 35.6875 96.8331 35.4886C97.0054 35.2898 97.1281 35.0511 97.201 34.7727H98.3743C98.308 35.2235 98.1439 35.6295 97.8821 35.9908C97.6236 36.3487 97.2805 36.6338 96.853 36.8459C96.4287 37.0547 95.9349 37.1591 95.3714 37.1591ZM104.007 37V36.1051L107.368 32.4261C107.762 31.9953 108.087 31.6207 108.342 31.3026C108.598 30.9811 108.786 30.6795 108.909 30.3977C109.035 30.1127 109.098 29.8144 109.098 29.5028C109.098 29.1449 109.012 28.835 108.839 28.5732C108.67 28.3113 108.438 28.1091 108.143 27.9666C107.848 27.8241 107.517 27.7528 107.149 27.7528C106.758 27.7528 106.417 27.834 106.125 27.9964C105.837 28.1555 105.613 28.3793 105.454 28.6676C105.298 28.956 105.22 29.294 105.22 29.6818H104.047C104.047 29.0852 104.184 28.5616 104.46 28.1108C104.735 27.66 105.109 27.3087 105.583 27.0568C106.06 26.8049 106.596 26.679 107.189 26.679C107.786 26.679 108.314 26.8049 108.775 27.0568C109.236 27.3087 109.597 27.6484 109.859 28.076C110.121 28.5036 110.251 28.9792 110.251 29.5028C110.251 29.8774 110.183 30.2436 110.048 30.6016C109.915 30.9562 109.683 31.3523 109.352 31.7898C109.023 32.224 108.568 32.7543 107.984 33.3807L105.697 35.8267V35.9062H110.43V37H104.007ZM115.805 37.1392C115.056 37.1392 114.418 36.9354 113.891 36.5277C113.364 36.1167 112.961 35.5218 112.683 34.7429C112.404 33.9607 112.265 33.0161 112.265 31.9091C112.265 30.8087 112.404 29.8691 112.683 29.0902C112.964 28.308 113.369 27.7114 113.896 27.3004C114.426 26.8861 115.062 26.679 115.805 26.679C116.547 26.679 117.182 26.8861 117.709 27.3004C118.239 27.7114 118.643 28.308 118.922 29.0902C119.204 29.8691 119.344 30.8087 119.344 31.9091C119.344 33.0161 119.205 33.9607 118.927 34.7429C118.648 35.5218 118.246 36.1167 117.719 36.5277C117.192 36.9354 116.554 37.1392 115.805 37.1392ZM115.805 36.0455C116.547 36.0455 117.124 35.6875 117.535 34.9716C117.946 34.2557 118.151 33.2348 118.151 31.9091C118.151 31.0275 118.057 30.2768 117.868 29.657C117.682 29.0372 117.414 28.5649 117.062 28.2401C116.714 27.9152 116.295 27.7528 115.805 27.7528C115.069 27.7528 114.494 28.1158 114.08 28.8416C113.665 29.5642 113.458 30.5866 113.458 31.9091C113.458 32.7907 113.551 33.5398 113.737 34.1562C113.922 34.7727 114.189 35.2417 114.537 35.5632C114.888 35.8847 115.311 36.0455 115.805 36.0455ZM121.234 37V36.1051L124.594 32.4261C124.989 31.9953 125.314 31.6207 125.569 31.3026C125.824 30.9811 126.013 30.6795 126.136 30.3977C126.262 30.1127 126.325 29.8144 126.325 29.5028C126.325 29.1449 126.238 28.835 126.066 28.5732C125.897 28.3113 125.665 28.1091 125.37 27.9666C125.075 27.8241 124.744 27.7528 124.376 27.7528C123.985 27.7528 123.643 27.834 123.352 27.9964C123.063 28.1555 122.839 28.3793 122.68 28.6676C122.525 28.956 122.447 29.294 122.447 29.6818H121.273C121.273 29.0852 121.411 28.5616 121.686 28.1108C121.961 27.66 122.336 27.3087 122.81 27.0568C123.287 26.8049 123.822 26.679 124.415 26.679C125.012 26.679 125.541 26.8049 126.001 27.0568C126.462 27.3087 126.823 27.6484 127.085 28.076C127.347 28.5036 127.478 28.9792 127.478 29.5028C127.478 29.8774 127.41 30.2436 127.274 30.6016C127.142 30.9562 126.91 31.3523 126.578 31.7898C126.25 32.224 125.794 32.7543 125.211 33.3807L122.924 35.8267V35.9062H127.657V37H121.234ZM132.892 37.1392C132.309 37.1392 131.783 37.0232 131.316 36.7912C130.849 36.5592 130.474 36.241 130.192 35.8366C129.911 35.4323 129.757 34.9716 129.73 34.4545H130.923C130.97 34.9152 131.179 35.2964 131.55 35.598C131.924 35.8963 132.372 36.0455 132.892 36.0455C133.31 36.0455 133.681 35.9477 134.006 35.7521C134.334 35.5566 134.591 35.2881 134.776 34.9467C134.965 34.602 135.06 34.2126 135.06 33.7784C135.06 33.3343 134.962 32.9382 134.766 32.5902C134.574 32.2389 134.309 31.9621 133.971 31.7599C133.633 31.5578 133.247 31.455 132.812 31.4517C132.501 31.4484 132.181 31.4964 131.853 31.5959C131.525 31.692 131.255 31.8163 131.043 31.9688L129.889 31.8295L130.506 26.8182H135.795V27.9119H131.54L131.182 30.9148H131.241C131.45 30.7491 131.712 30.6115 132.027 30.5021C132.342 30.3928 132.67 30.3381 133.011 30.3381C133.634 30.3381 134.19 30.4872 134.677 30.7855C135.167 31.0805 135.552 31.4848 135.83 31.9986C136.112 32.5123 136.253 33.099 136.253 33.7585C136.253 34.4081 136.107 34.9882 135.815 35.4986C135.527 36.0057 135.129 36.4067 134.622 36.7017C134.115 36.9934 133.538 37.1392 132.892 37.1392ZM146.56 31.3622V32.456H142.106V31.3622H146.56ZM153.139 37H151.846L155.585 26.8182H156.858L160.596 37H159.304L156.261 28.429H156.181L153.139 37ZM153.616 33.0227H158.826V34.1165H153.616V33.0227ZM162.023 39.8636V29.3636H163.157V30.5767H163.296C163.382 30.4441 163.501 30.2751 163.654 30.0696C163.81 29.8608 164.032 29.6752 164.32 29.5128C164.612 29.3471 165.006 29.2642 165.503 29.2642C166.146 29.2642 166.713 29.425 167.203 29.7464C167.694 30.0679 168.077 30.5237 168.352 31.1136C168.627 31.7036 168.765 32.3996 168.765 33.2017C168.765 34.0104 168.627 34.7114 168.352 35.3047C168.077 35.8946 167.696 36.352 167.208 36.6768C166.721 36.9983 166.159 37.1591 165.523 37.1591C165.033 37.1591 164.64 37.0779 164.345 36.9155C164.05 36.7498 163.823 36.5625 163.664 36.3537C163.505 36.1416 163.382 35.9659 163.296 35.8267H163.196V39.8636H162.023ZM163.176 33.1818C163.176 33.7585 163.261 34.2673 163.43 34.7081C163.599 35.1456 163.846 35.4886 164.171 35.7372C164.496 35.9825 164.893 36.1051 165.364 36.1051C165.855 36.1051 166.264 35.9759 166.592 35.7173C166.923 35.4555 167.172 35.1042 167.338 34.6634C167.507 34.2192 167.591 33.7254 167.591 33.1818C167.591 32.6449 167.508 32.161 167.343 31.7301C167.18 31.2959 166.933 30.9529 166.602 30.701C166.274 30.4458 165.861 30.3182 165.364 30.3182C164.887 30.3182 164.486 30.4392 164.161 30.6811C163.836 30.9197 163.591 31.2545 163.425 31.6854C163.259 32.1129 163.176 32.6117 163.176 33.1818ZM170.554 37V29.3636H171.688V30.517H171.767C171.907 30.1392 172.158 29.8326 172.523 29.5973C172.888 29.362 173.299 29.2443 173.756 29.2443C173.842 29.2443 173.95 29.246 174.079 29.2493C174.208 29.2526 174.306 29.2576 174.373 29.2642V30.4574C174.333 30.4474 174.242 30.4325 174.099 30.4126C173.96 30.3894 173.812 30.3778 173.657 30.3778C173.285 30.3778 172.954 30.4557 172.662 30.6115C172.374 30.764 172.145 30.9761 171.976 31.2479C171.81 31.5163 171.728 31.8229 171.728 32.1676V37H170.554ZM175.763 37V29.3636H176.937V37H175.763ZM176.36 28.0909C176.131 28.0909 175.934 28.013 175.768 27.8572C175.606 27.7015 175.525 27.5142 175.525 27.2955C175.525 27.0767 175.606 26.8894 175.768 26.7337C175.934 26.5779 176.131 26.5 176.36 26.5C176.589 26.5 176.784 26.5779 176.947 26.7337C177.112 26.8894 177.195 27.0767 177.195 27.2955C177.195 27.5142 177.112 27.7015 176.947 27.8572C176.784 28.013 176.589 28.0909 176.36 28.0909ZM180.259 26.8182V37H179.086V26.8182H180.259ZM186.325 37V36.1051L189.686 32.4261C190.081 31.9953 190.405 31.6207 190.661 31.3026C190.916 30.9811 191.105 30.6795 191.227 30.3977C191.353 30.1127 191.416 29.8144 191.416 29.5028C191.416 29.1449 191.33 28.835 191.158 28.5732C190.989 28.3113 190.757 28.1091 190.462 27.9666C190.167 27.8241 189.835 27.7528 189.468 27.7528C189.076 27.7528 188.735 27.834 188.443 27.9964C188.155 28.1555 187.931 28.3793 187.772 28.6676C187.616 28.956 187.539 29.294 187.539 29.6818H186.365C186.365 29.0852 186.503 28.5616 186.778 28.1108C187.053 27.66 187.427 27.3087 187.901 27.0568C188.379 26.8049 188.914 26.679 189.507 26.679C190.104 26.679 190.633 26.8049 191.093 27.0568C191.554 27.3087 191.915 27.6484 192.177 28.076C192.439 28.5036 192.57 28.9792 192.57 29.5028C192.57 29.8774 192.502 30.2436 192.366 30.6016C192.233 30.9562 192.001 31.3523 191.67 31.7898C191.342 32.224 190.886 32.7543 190.303 33.3807L188.016 35.8267V35.9062H192.749V37H186.325ZM198.123 37.1392C197.374 37.1392 196.736 36.9354 196.209 36.5277C195.682 36.1167 195.279 35.5218 195.001 34.7429C194.722 33.9607 194.583 33.0161 194.583 31.9091C194.583 30.8087 194.722 29.8691 195.001 29.0902C195.283 28.308 195.687 27.7114 196.214 27.3004C196.744 26.8861 197.381 26.679 198.123 26.679C198.865 26.679 199.5 26.8861 200.027 27.3004C200.557 27.7114 200.962 28.308 201.24 29.0902C201.522 29.8691 201.663 30.8087 201.663 31.9091C201.663 33.0161 201.524 33.9607 201.245 34.7429C200.967 35.5218 200.564 36.1167 200.037 36.5277C199.51 36.9354 198.872 37.1392 198.123 37.1392ZM198.123 36.0455C198.865 36.0455 199.442 35.6875 199.853 34.9716C200.264 34.2557 200.47 33.2348 200.47 31.9091C200.47 31.0275 200.375 30.2768 200.186 29.657C200.001 29.0372 199.732 28.5649 199.381 28.2401C199.033 27.9152 198.614 27.7528 198.123 27.7528C197.387 27.7528 196.812 28.1158 196.398 28.8416C195.984 29.5642 195.776 30.5866 195.776 31.9091C195.776 32.7907 195.869 33.5398 196.055 34.1562C196.24 34.7727 196.507 35.2417 196.855 35.5632C197.207 35.8847 197.629 36.0455 198.123 36.0455ZM203.552 37V36.1051L206.913 32.4261C207.307 31.9953 207.632 31.6207 207.887 31.3026C208.142 30.9811 208.331 30.6795 208.454 30.3977C208.58 30.1127 208.643 29.8144 208.643 29.5028C208.643 29.1449 208.557 28.835 208.384 28.5732C208.215 28.3113 207.983 28.1091 207.688 27.9666C207.393 27.8241 207.062 27.7528 206.694 27.7528C206.303 27.7528 205.962 27.834 205.67 27.9964C205.382 28.1555 205.158 28.3793 204.999 28.6676C204.843 28.956 204.765 29.294 204.765 29.6818H203.592C203.592 29.0852 203.729 28.5616 204.004 28.1108C204.28 27.66 204.654 27.3087 205.128 27.0568C205.605 26.8049 206.141 26.679 206.734 26.679C207.33 26.679 207.859 26.8049 208.32 27.0568C208.78 27.3087 209.142 27.6484 209.404 28.076C209.665 28.5036 209.796 28.9792 209.796 29.5028C209.796 29.8774 209.728 30.2436 209.593 30.6016C209.46 30.9562 209.228 31.3523 208.896 31.7898C208.568 32.224 208.113 32.7543 207.529 33.3807L205.242 35.8267V35.9062H209.975V37H203.552ZM215.409 37.1392C214.992 37.1326 214.574 37.053 214.156 36.9006C213.739 36.7481 213.358 36.4912 213.013 36.13C212.668 35.7654 212.392 35.2732 212.183 34.6534C211.974 34.0303 211.869 33.2481 211.869 32.3068C211.869 31.4053 211.954 30.6065 212.123 29.9105C212.292 29.2112 212.537 28.6229 212.859 28.1456C213.18 27.665 213.568 27.3004 214.022 27.0518C214.48 26.8033 214.995 26.679 215.568 26.679C216.138 26.679 216.646 26.7933 217.09 27.022C217.537 27.2474 217.902 27.5623 218.183 27.9666C218.465 28.371 218.647 28.8366 218.73 29.3636H217.517C217.405 28.9062 217.186 28.5268 216.861 28.2251C216.536 27.9235 216.105 27.7727 215.568 27.7727C214.78 27.7727 214.158 28.1158 213.704 28.8018C213.253 29.4879 213.026 30.4508 213.023 31.6903H213.102C213.288 31.4086 213.508 31.1683 213.764 30.9695C214.022 30.7673 214.307 30.6115 214.619 30.5021C214.93 30.3928 215.26 30.3381 215.608 30.3381C216.191 30.3381 216.725 30.4839 217.209 30.7756C217.693 31.0639 218.081 31.4633 218.372 31.9737C218.664 32.4808 218.81 33.0625 218.81 33.7188C218.81 34.3485 218.669 34.9252 218.387 35.4489C218.106 35.9692 217.709 36.3835 217.199 36.6918C216.692 36.9967 216.095 37.1458 215.409 37.1392ZM215.409 36.0455C215.827 36.0455 216.201 35.9411 216.533 35.7322C216.868 35.5234 217.131 35.2434 217.323 34.892C217.519 34.5407 217.617 34.1496 217.617 33.7188C217.617 33.2978 217.522 32.915 217.333 32.5703C217.148 32.2223 216.891 31.9455 216.563 31.7401C216.238 31.5346 215.867 31.4318 215.449 31.4318C215.134 31.4318 214.841 31.4948 214.569 31.6207C214.297 31.7434 214.059 31.9124 213.853 32.1278C213.651 32.3433 213.492 32.5902 213.376 32.8686C213.26 33.1437 213.202 33.4337 213.202 33.7386C213.202 34.143 213.296 34.5208 213.485 34.8722C213.677 35.2235 213.939 35.5069 214.271 35.7223C214.606 35.9377 214.985 36.0455 215.409 36.0455Z" fill="black" fill-opacity="0.9"/>
<path d="M41.9915 48.9091C41.9915 47.6562 42.1539 46.5045 42.4787 45.4538C42.8068 44.3999 43.2741 43.4304 43.8807 42.5455H44.9148C44.6761 42.8736 44.4524 43.2779 44.2436 43.7585C44.0381 44.2358 43.8575 44.7611 43.7017 45.3345C43.5459 45.9046 43.4233 46.4946 43.3338 47.1044C43.2476 47.7143 43.2045 48.3158 43.2045 48.9091C43.2045 49.6979 43.2808 50.4983 43.4332 51.3104C43.5857 52.1224 43.7912 52.8764 44.0497 53.5724C44.3082 54.2685 44.5966 54.8352 44.9148 55.2727H43.8807C43.2741 54.3878 42.8068 53.42 42.4787 52.3693C42.1539 51.3153 41.9915 50.1619 41.9915 48.9091ZM50.2058 43.8182V54H48.9728V45.1108H48.9132L46.4274 46.7614V45.5085L48.9728 43.8182H50.2058ZM56.5147 54.1392C56.0971 54.1326 55.6795 54.053 55.2619 53.9006C54.8443 53.7481 54.4631 53.4912 54.1184 53.13C53.7737 52.7654 53.497 52.2732 53.2882 51.6534C53.0794 51.0303 52.975 50.2481 52.975 49.3068C52.975 48.4053 53.0595 47.6065 53.2285 46.9105C53.3975 46.2112 53.6428 45.6229 53.9643 45.1456C54.2858 44.665 54.6736 44.3004 55.1277 44.0518C55.585 43.8033 56.1004 43.679 56.6738 43.679C57.2439 43.679 57.751 43.7933 58.1951 44.022C58.6426 44.2474 59.0072 44.5623 59.2889 44.9666C59.5706 45.371 59.7529 45.8366 59.8358 46.3636H58.6227C58.51 45.9062 58.2913 45.5268 57.9664 45.2251C57.6416 44.9235 57.2108 44.7727 56.6738 44.7727C55.885 44.7727 55.2636 45.1158 54.8095 45.8018C54.3587 46.4879 54.1317 47.4508 54.1284 48.6903H54.2079C54.3935 48.4086 54.6139 48.1683 54.8691 47.9695C55.1277 47.7673 55.4127 47.6115 55.7243 47.5021C56.0358 47.3928 56.3656 47.3381 56.7136 47.3381C57.2969 47.3381 57.8306 47.4839 58.3145 47.7756C58.7984 48.0639 59.1861 48.4633 59.4778 48.9737C59.7695 49.4808 59.9153 50.0625 59.9153 50.7188C59.9153 51.3485 59.7744 51.9252 59.4927 52.4489C59.211 52.9692 58.8149 53.3835 58.3045 53.6918C57.7974 53.9967 57.2008 54.1458 56.5147 54.1392ZM56.5147 53.0455C56.9324 53.0455 57.3069 52.9411 57.6383 52.7322C57.9731 52.5234 58.2366 52.2434 58.4288 51.892C58.6243 51.5407 58.7221 51.1496 58.7221 50.7188C58.7221 50.2978 58.6277 49.915 58.4387 49.5703C58.2531 49.2223 57.9963 48.9455 57.6681 48.7401C57.3433 48.5346 56.9721 48.4318 56.5545 48.4318C56.2396 48.4318 55.9463 48.4948 55.6745 48.6207C55.4028 48.7434 55.1641 48.9124 54.9586 49.1278C54.7565 49.3433 54.5974 49.5902 54.4814 49.8686C54.3654 50.1437 54.3074 50.4337 54.3074 50.7386C54.3074 51.143 54.4018 51.5208 54.5907 51.8722C54.783 52.2235 55.0448 52.5069 55.3762 52.7223C55.711 52.9377 56.0905 53.0455 56.5147 53.0455ZM67.5579 54L65.2312 46.3636H66.4641L68.1147 52.2102H68.1942L69.8249 46.3636H71.0778L72.6886 52.1903H72.7681L74.4187 46.3636H75.6516L73.3249 54H72.1715L70.5011 48.1335H70.3817L68.7113 54H67.5579ZM80.1447 54.1591C79.4089 54.1591 78.7742 53.9967 78.2406 53.6719C77.7103 53.3438 77.301 52.8864 77.0126 52.2997C76.7276 51.7098 76.585 51.0237 76.585 50.2415C76.585 49.4593 76.7276 48.7699 77.0126 48.1733C77.301 47.5734 77.702 47.1061 78.2157 46.7713C78.7328 46.4332 79.336 46.2642 80.0254 46.2642C80.4231 46.2642 80.8159 46.3305 81.2037 46.4631C81.5914 46.5956 81.9444 46.8111 82.2626 47.1094C82.5808 47.4044 82.8343 47.7955 83.0233 48.2827C83.2122 48.7699 83.3066 49.3698 83.3066 50.0824V50.5795H77.4203V49.5653H82.1135C82.1135 49.1345 82.0273 48.75 81.8549 48.4119C81.6859 48.0739 81.444 47.8071 81.1291 47.6115C80.8175 47.416 80.4496 47.3182 80.0254 47.3182C79.5581 47.3182 79.1537 47.4342 78.8123 47.6662C78.4743 47.8949 78.2141 48.1932 78.0318 48.5611C77.8495 48.929 77.7583 49.3234 77.7583 49.7443V50.4205C77.7583 50.9972 77.8578 51.486 78.0566 51.8871C78.2588 52.2848 78.5389 52.5881 78.8968 52.7969C79.2548 53.0024 79.6708 53.1051 80.1447 53.1051C80.4529 53.1051 80.7314 53.062 80.9799 52.9759C81.2318 52.8864 81.4489 52.7538 81.6312 52.5781C81.8135 52.3991 81.9544 52.1771 82.0538 51.9119L83.1873 52.2301C83.068 52.6146 82.8675 52.9527 82.5858 53.2443C82.304 53.5327 81.956 53.758 81.5417 53.9205C81.1274 54.0795 80.6618 54.1591 80.1447 54.1591ZM88.2931 54.1591C87.5574 54.1591 86.9226 53.9967 86.389 53.6719C85.8587 53.3438 85.4494 52.8864 85.161 52.2997C84.876 51.7098 84.7335 51.0237 84.7335 50.2415C84.7335 49.4593 84.876 48.7699 85.161 48.1733C85.4494 47.5734 85.8504 47.1061 86.3642 46.7713C86.8812 46.4332 87.4844 46.2642 88.1738 46.2642C88.5716 46.2642 88.9643 46.3305 89.3521 46.4631C89.7399 46.5956 90.0929 46.8111 90.411 47.1094C90.7292 47.4044 90.9828 47.7955 91.1717 48.2827C91.3606 48.7699 91.4551 49.3698 91.4551 50.0824V50.5795H85.5687V49.5653H90.2619C90.2619 49.1345 90.1757 48.75 90.0034 48.4119C89.8343 48.0739 89.5924 47.8071 89.2775 47.6115C88.966 47.416 88.5981 47.3182 88.1738 47.3182C87.7065 47.3182 87.3021 47.4342 86.9608 47.6662C86.6227 47.8949 86.3625 48.1932 86.1802 48.5611C85.9979 48.929 85.9068 49.3234 85.9068 49.7443V50.4205C85.9068 50.9972 86.0062 51.486 86.2051 51.8871C86.4073 52.2848 86.6873 52.5881 87.0453 52.7969C87.4032 53.0024 87.8192 53.1051 88.2931 53.1051C88.6014 53.1051 88.8798 53.062 89.1284 52.9759C89.3803 52.8864 89.5974 52.7538 89.7797 52.5781C89.9619 52.3991 90.1028 52.1771 90.2022 51.9119L91.3358 52.2301C91.2164 52.6146 91.0159 52.9527 90.7342 53.2443C90.4525 53.5327 90.1045 53.758 89.6902 53.9205C89.2759 54.0795 88.8102 54.1591 88.2931 54.1591ZM94.3336 51.2159L94.3137 49.7642H94.5524L97.8933 46.3636H99.345L95.7853 49.9631H95.6859L94.3336 51.2159ZM93.2399 54V43.8182H94.4132V54H93.2399ZM98.0922 54L95.1092 50.2216L95.9444 49.4062L99.5836 54H98.0922ZM106.264 48.0739L105.21 48.3722C105.144 48.1965 105.046 48.0258 104.917 47.8601C104.791 47.6911 104.619 47.5518 104.4 47.4425C104.181 47.3331 103.901 47.2784 103.56 47.2784C103.092 47.2784 102.703 47.3861 102.391 47.6016C102.083 47.8137 101.929 48.0838 101.929 48.4119C101.929 48.7036 102.035 48.9339 102.247 49.103C102.459 49.272 102.791 49.4129 103.241 49.5256L104.375 49.804C105.058 49.9697 105.567 50.2232 105.901 50.5646C106.236 50.9027 106.403 51.3385 106.403 51.8722C106.403 52.3097 106.277 52.7008 106.026 53.0455C105.777 53.3902 105.429 53.6619 104.982 53.8608C104.534 54.0597 104.014 54.1591 103.42 54.1591C102.642 54.1591 101.997 53.9901 101.487 53.652C100.976 53.3139 100.653 52.8201 100.517 52.1705L101.631 51.892C101.737 52.303 101.937 52.6113 102.232 52.8168C102.531 53.0223 102.92 53.125 103.401 53.125C103.947 53.125 104.382 53.009 104.703 52.777C105.028 52.5417 105.19 52.2599 105.19 51.9318C105.19 51.6667 105.098 51.4446 104.912 51.2656C104.726 51.0833 104.441 50.9474 104.057 50.858L102.784 50.5597C102.085 50.3939 101.571 50.1371 101.243 49.7891C100.918 49.4377 100.756 48.9986 100.756 48.4716C100.756 48.0407 100.877 47.6596 101.119 47.3281C101.364 46.9967 101.697 46.7365 102.118 46.5476C102.542 46.3587 103.023 46.2642 103.56 46.2642C104.315 46.2642 104.909 46.4299 105.339 46.7614C105.774 47.0928 106.082 47.5303 106.264 48.0739ZM110.675 49.7045C110.675 50.9574 110.511 52.1108 110.183 53.1648C109.858 54.2154 109.393 55.1832 108.786 56.0682H107.752C107.991 55.7401 108.213 55.3357 108.418 54.8551C108.627 54.3778 108.809 53.8542 108.965 53.2841C109.121 52.7107 109.242 52.1191 109.328 51.5092C109.417 50.8961 109.462 50.2945 109.462 49.7045C109.462 48.9157 109.386 48.1153 109.233 47.3033C109.081 46.4912 108.876 45.7372 108.617 45.0412C108.358 44.3452 108.07 43.7784 107.752 43.3409H108.786C109.393 44.2259 109.858 45.1953 110.183 46.2493C110.511 47.3 110.675 48.4517 110.675 49.7045Z" fill="black" fill-opacity="0.6"/>
<g clip-path="url(#clip0_33_7059)">
<path d="M304.22 21C304.22 16.8686 301.526 13.3594 297.804 12.1217C298.452 11.6562 298.98 11.0434 299.344 10.3337C299.709 9.62397 299.899 8.83779 299.9 8.04C299.9 5.26152 297.638 3 294.86 3C292.082 3 289.82 5.26152 289.82 8.04C289.821 8.83779 290.011 9.62397 290.376 10.3337C290.74 11.0434 291.268 11.6562 291.916 12.1217C288.194 13.3594 285.5 16.8686 285.5 21V21.72H304.22V21ZM291.26 8.04C291.26 6.05496 292.875 4.44 294.86 4.44C296.845 4.44 298.46 6.05496 298.46 8.04C298.46 10.025 296.845 11.64 294.86 11.64C292.875 11.64 291.26 10.025 291.26 8.04ZM286.972 20.28C294.5 21.5 290.735 21 294.86 21C298.985 21 298.46 20.28 302.748 20.28H286.972ZM313.644 27.9617C314.292 27.4962 314.82 26.8834 315.184 26.1737C315.549 25.464 315.739 24.6778 315.74 23.88C315.74 21.1015 313.478 18.84 310.7 18.84C307.922 18.84 305.66 21.1015 305.66 23.88C305.661 24.6778 305.851 25.464 306.216 26.1737C306.58 26.8834 307.108 27.4962 307.756 27.9617C304.034 29.1994 301.34 32.7086 301.34 36.84V37.56H320.06V36.84C320.06 32.7086 317.366 29.1994 313.644 27.9617ZM307.1 23.88C307.1 21.895 308.715 20.28 310.7 20.28C312.685 20.28 314.3 21.895 314.3 23.88C314.3 25.865 312.685 27.48 310.7 27.48C308.715 27.48 307.1 25.865 307.1 23.88ZM306.216 32.015C306.216 32.015 306.875 33 311 33C315.125 33 316 33 315.5 31.8L306.216 32.015ZM311.42 15.96V7.32H305.238L307.609 4.94904L306.591 3.93096L302.482 8.04L306.591 12.149L307.609 11.131L305.238 8.76H309.98V15.96H311.42ZM293.631 29.429L296.002 31.8H291.26V24.6H289.82V33.24H296.002L293.631 35.611L294.649 36.629L298.758 32.52L294.649 28.411L293.631 29.429Z" fill="#431F17"/>
</g>
<path d="M338.693 30C338.584 29.6652 338.44 29.3653 338.261 29.1001C338.085 28.8317 337.875 28.603 337.629 28.4141C337.387 28.2251 337.112 28.081 336.804 27.9815C336.496 27.8821 336.158 27.8324 335.79 27.8324C335.187 27.8324 334.638 27.9882 334.144 28.2997C333.65 28.6113 333.258 29.0703 332.966 29.6768C332.674 30.2834 332.528 31.0275 332.528 31.9091C332.528 32.7907 332.676 33.5348 332.971 34.1413C333.266 34.7479 333.665 35.2069 334.169 35.5185C334.673 35.83 335.24 35.9858 335.869 35.9858C336.453 35.9858 336.966 35.8615 337.411 35.6129C337.858 35.361 338.206 35.0064 338.455 34.549C338.706 34.0883 338.832 33.5464 338.832 32.9233L339.21 33.0028H336.148V31.9091H340.026V33.0028C340.026 33.8414 339.847 34.5705 339.489 35.1903C339.134 35.8101 338.643 36.2907 338.017 36.6321C337.394 36.9702 336.678 37.1392 335.869 37.1392C334.968 37.1392 334.176 36.9271 333.493 36.5028C332.813 36.0786 332.283 35.4754 331.902 34.6932C331.524 33.911 331.335 32.983 331.335 31.9091C331.335 31.1037 331.443 30.3795 331.658 29.7365C331.877 29.0902 332.185 28.54 332.583 28.0859C332.981 27.6319 333.451 27.2839 333.995 27.0419C334.539 26.8 335.137 26.679 335.79 26.679C336.327 26.679 336.827 26.7602 337.291 26.9226C337.759 27.0817 338.174 27.3087 338.539 27.6037C338.907 27.8954 339.214 28.245 339.459 28.6527C339.704 29.0571 339.873 29.5062 339.966 30H338.693ZM341.978 37V29.3636H343.112V30.517H343.191C343.33 30.1392 343.582 29.8326 343.947 29.5973C344.311 29.362 344.722 29.2443 345.18 29.2443C345.266 29.2443 345.374 29.246 345.503 29.2493C345.632 29.2526 345.73 29.2576 345.796 29.2642V30.4574C345.757 30.4474 345.665 30.4325 345.523 30.4126C345.384 30.3894 345.236 30.3778 345.08 30.3778C344.709 30.3778 344.378 30.4557 344.086 30.6115C343.798 30.764 343.569 30.9761 343.4 31.2479C343.234 31.5163 343.151 31.8229 343.151 32.1676V37H341.978ZM349.434 37.179C348.95 37.179 348.511 37.0878 348.117 36.9055C347.722 36.7199 347.409 36.4531 347.177 36.1051C346.945 35.7538 346.829 35.3295 346.829 34.8324C346.829 34.3949 346.915 34.0402 347.088 33.7685C347.26 33.4934 347.49 33.2779 347.779 33.1222C348.067 32.9664 348.385 32.8504 348.733 32.7741C349.085 32.6946 349.438 32.6316 349.792 32.5852C350.256 32.5256 350.632 32.4808 350.921 32.451C351.212 32.4179 351.425 32.3632 351.557 32.2869C351.693 32.2107 351.761 32.0781 351.761 31.8892V31.8494C351.761 31.3589 351.627 30.9777 351.358 30.706C351.093 30.4342 350.69 30.2983 350.15 30.2983C349.59 30.2983 349.151 30.4209 348.833 30.6662C348.515 30.9115 348.291 31.1733 348.162 31.4517L347.048 31.054C347.247 30.59 347.512 30.2287 347.843 29.9702C348.178 29.7083 348.543 29.526 348.937 29.4233C349.335 29.3172 349.726 29.2642 350.11 29.2642C350.356 29.2642 350.637 29.294 350.956 29.3537C351.277 29.41 351.587 29.5277 351.885 29.7067C352.187 29.8857 352.437 30.1558 352.636 30.517C352.835 30.8783 352.934 31.3622 352.934 31.9688V37H351.761V35.9659H351.701C351.622 36.1316 351.489 36.3089 351.304 36.4979C351.118 36.6868 350.871 36.8475 350.563 36.9801C350.255 37.1127 349.878 37.179 349.434 37.179ZM349.613 36.125C350.077 36.125 350.468 36.0339 350.787 35.8516C351.108 35.6693 351.35 35.4339 351.512 35.1456C351.678 34.8572 351.761 34.554 351.761 34.2358V33.1619C351.711 33.2216 351.602 33.2763 351.433 33.326C351.267 33.3724 351.075 33.4138 350.856 33.4503C350.641 33.4834 350.43 33.5133 350.225 33.5398C350.023 33.563 349.859 33.5829 349.733 33.5994C349.428 33.6392 349.143 33.7038 348.877 33.7933C348.616 33.8795 348.404 34.0104 348.241 34.1861C348.082 34.3584 348.002 34.5937 348.002 34.892C348.002 35.2997 348.153 35.608 348.455 35.8168C348.76 36.0223 349.146 36.125 349.613 36.125ZM357.959 37.1591C357.323 37.1591 356.761 36.9983 356.274 36.6768C355.787 36.352 355.406 35.8946 355.131 35.3047C354.855 34.7114 354.718 34.0104 354.718 33.2017C354.718 32.3996 354.855 31.7036 355.131 31.1136C355.406 30.5237 355.788 30.0679 356.279 29.7464C356.769 29.425 357.336 29.2642 357.979 29.2642C358.476 29.2642 358.869 29.3471 359.157 29.5128C359.449 29.6752 359.671 29.8608 359.824 30.0696C359.979 30.2751 360.1 30.4441 360.187 30.5767H360.286V26.8182H361.459V37H360.326V35.8267H360.187C360.1 35.9659 359.978 36.1416 359.819 36.3537C359.66 36.5625 359.433 36.7498 359.138 36.9155C358.843 37.0779 358.45 37.1591 357.959 37.1591ZM358.118 36.1051C358.589 36.1051 358.987 35.9825 359.312 35.7372C359.636 35.4886 359.883 35.1456 360.052 34.7081C360.221 34.2673 360.306 33.7585 360.306 33.1818C360.306 32.6117 360.223 32.1129 360.057 31.6854C359.892 31.2545 359.646 30.9197 359.322 30.6811C358.997 30.4392 358.596 30.3182 358.118 30.3182C357.621 30.3182 357.207 30.4458 356.876 30.701C356.547 30.9529 356.3 31.2959 356.135 31.7301C355.972 32.161 355.891 32.6449 355.891 33.1818C355.891 33.7254 355.974 34.2192 356.14 34.6634C356.309 35.1042 356.557 35.4555 356.885 35.7173C357.217 35.9759 357.628 36.1051 358.118 36.1051ZM368.584 33.8778V29.3636H369.757V37H368.584V35.7074H368.504C368.325 36.0952 368.047 36.425 367.669 36.6967C367.291 36.9652 366.814 37.0994 366.237 37.0994C365.76 37.0994 365.336 36.995 364.964 36.7862C364.593 36.5741 364.301 36.2559 364.089 35.8317C363.877 35.4041 363.771 34.8655 363.771 34.2159V29.3636H364.944V34.1364C364.944 34.6932 365.1 35.1373 365.412 35.4688C365.727 35.8002 366.128 35.9659 366.615 35.9659C366.907 35.9659 367.203 35.8913 367.505 35.7422C367.81 35.593 368.065 35.3643 368.27 35.0561C368.479 34.7479 368.584 34.3551 368.584 33.8778ZM374.153 37.179C373.669 37.179 373.23 37.0878 372.836 36.9055C372.441 36.7199 372.128 36.4531 371.896 36.1051C371.664 35.7538 371.548 35.3295 371.548 34.8324C371.548 34.3949 371.634 34.0402 371.806 33.7685C371.979 33.4934 372.209 33.2779 372.498 33.1222C372.786 32.9664 373.104 32.8504 373.452 32.7741C373.803 32.6946 374.156 32.6316 374.511 32.5852C374.975 32.5256 375.351 32.4808 375.64 32.451C375.931 32.4179 376.143 32.3632 376.276 32.2869C376.412 32.2107 376.48 32.0781 376.48 31.8892V31.8494C376.48 31.3589 376.346 30.9777 376.077 30.706C375.812 30.4342 375.409 30.2983 374.869 30.2983C374.309 30.2983 373.87 30.4209 373.551 30.6662C373.233 30.9115 373.01 31.1733 372.88 31.4517L371.767 31.054C371.966 30.59 372.231 30.2287 372.562 29.9702C372.897 29.7083 373.261 29.526 373.656 29.4233C374.054 29.3172 374.445 29.2642 374.829 29.2642C375.074 29.2642 375.356 29.294 375.674 29.3537C375.996 29.41 376.306 29.5277 376.604 29.7067C376.906 29.8857 377.156 30.1558 377.355 30.517C377.554 30.8783 377.653 31.3622 377.653 31.9688V37H376.48V35.9659H376.42C376.341 36.1316 376.208 36.3089 376.022 36.4979C375.837 36.6868 375.59 36.8475 375.282 36.9801C374.973 37.1127 374.597 37.179 374.153 37.179ZM374.332 36.125C374.796 36.125 375.187 36.0339 375.505 35.8516C375.827 35.6693 376.069 35.4339 376.231 35.1456C376.397 34.8572 376.48 34.554 376.48 34.2358V33.1619C376.43 33.2216 376.321 33.2763 376.152 33.326C375.986 33.3724 375.794 33.4138 375.575 33.4503C375.359 33.4834 375.149 33.5133 374.944 33.5398C374.741 33.563 374.577 33.5829 374.451 33.5994C374.146 33.6392 373.861 33.7038 373.596 33.7933C373.334 33.8795 373.122 34.0104 372.96 34.1861C372.801 34.3584 372.721 34.5937 372.721 34.892C372.721 35.2997 372.872 35.608 373.174 35.8168C373.479 36.0223 373.865 36.125 374.332 36.125ZM383.116 29.3636V30.358H379.158V29.3636H383.116ZM380.312 27.5341H381.485V34.8125C381.485 35.1439 381.533 35.3925 381.629 35.5582C381.729 35.7206 381.854 35.83 382.007 35.8864C382.163 35.9394 382.327 35.9659 382.499 35.9659C382.628 35.9659 382.734 35.9593 382.817 35.946C382.9 35.9295 382.966 35.9162 383.016 35.9062L383.255 36.9602C383.175 36.9901 383.064 37.0199 382.922 37.0497C382.779 37.0829 382.599 37.0994 382.38 37.0994C382.048 37.0994 381.724 37.0282 381.405 36.8857C381.09 36.7431 380.829 36.526 380.62 36.2344C380.414 35.9427 380.312 35.5748 380.312 35.1307V27.5341ZM384.881 37V29.3636H386.054V37H384.881ZM385.477 28.0909C385.248 28.0909 385.051 28.013 384.885 27.8572C384.723 27.7015 384.642 27.5142 384.642 27.2955C384.642 27.0767 384.723 26.8894 384.885 26.7337C385.051 26.5779 385.248 26.5 385.477 26.5C385.706 26.5 385.901 26.5779 386.064 26.7337C386.229 26.8894 386.312 27.0767 386.312 27.2955C386.312 27.5142 386.229 27.7015 386.064 27.8572C385.901 28.013 385.706 28.0909 385.477 28.0909ZM391.305 37.1591C390.616 37.1591 390.011 36.995 389.49 36.6669C388.973 36.3388 388.569 35.8797 388.277 35.2898C387.989 34.6998 387.845 34.0104 387.845 33.2216C387.845 32.4261 387.989 31.7318 388.277 31.1385C388.569 30.5452 388.973 30.0845 389.49 29.7564C390.011 29.4283 390.616 29.2642 391.305 29.2642C391.994 29.2642 392.598 29.4283 393.115 29.7564C393.635 30.0845 394.039 30.5452 394.328 31.1385C394.619 31.7318 394.765 32.4261 394.765 33.2216C394.765 34.0104 394.619 34.6998 394.328 35.2898C394.039 35.8797 393.635 36.3388 393.115 36.6669C392.598 36.995 391.994 37.1591 391.305 37.1591ZM391.305 36.1051C391.829 36.1051 392.26 35.9709 392.598 35.7024C392.936 35.4339 393.186 35.081 393.348 34.6435C393.511 34.206 393.592 33.732 393.592 33.2216C393.592 32.7112 393.511 32.2356 393.348 31.7947C393.186 31.3539 392.936 30.9976 392.598 30.7259C392.26 30.4541 391.829 30.3182 391.305 30.3182C390.781 30.3182 390.35 30.4541 390.012 30.7259C389.674 30.9976 389.424 31.3539 389.262 31.7947C389.099 32.2356 389.018 32.7112 389.018 33.2216C389.018 33.732 389.099 34.206 389.262 34.6435C389.424 35.081 389.674 35.4339 390.012 35.7024C390.35 35.9709 390.781 36.1051 391.305 36.1051ZM397.73 32.4062V37H396.556V29.3636H397.69V30.5568H397.789C397.968 30.169 398.24 29.8575 398.605 29.6222C398.969 29.3835 399.44 29.2642 400.017 29.2642C400.534 29.2642 400.986 29.3703 401.374 29.5824C401.762 29.7912 402.063 30.1094 402.279 30.5369C402.494 30.9612 402.602 31.4981 402.602 32.1477V37H401.428V32.2273C401.428 31.6274 401.273 31.16 400.961 30.8253C400.65 30.4872 400.222 30.3182 399.678 30.3182C399.304 30.3182 398.969 30.3994 398.674 30.5618C398.383 30.7242 398.152 30.9612 397.983 31.2727C397.814 31.5843 397.73 31.9621 397.73 32.4062ZM408.842 37V26.8182H412.283C413.081 26.8182 413.734 26.9624 414.241 27.2507C414.752 27.5357 415.13 27.9219 415.375 28.4091C415.62 28.8963 415.743 29.4399 415.743 30.0398C415.743 30.6397 415.62 31.1849 415.375 31.6754C415.133 32.166 414.759 32.5571 414.251 32.8487C413.744 33.1371 413.095 33.2812 412.303 33.2812H409.837V32.1875H412.263C412.81 32.1875 413.249 32.093 413.58 31.9041C413.912 31.7152 414.152 31.46 414.301 31.1385C414.454 30.8137 414.53 30.4474 414.53 30.0398C414.53 29.6321 414.454 29.2675 414.301 28.946C414.152 28.6245 413.91 28.3726 413.575 28.1903C413.241 28.0047 412.796 27.9119 412.243 27.9119H410.075V37H408.842ZM417.57 37V29.3636H418.703V30.517H418.783C418.922 30.1392 419.174 29.8326 419.539 29.5973C419.903 29.362 420.314 29.2443 420.772 29.2443C420.858 29.2443 420.966 29.246 421.095 29.2493C421.224 29.2526 421.322 29.2576 421.388 29.2642V30.4574C421.348 30.4474 421.257 30.4325 421.115 30.4126C420.975 30.3894 420.828 30.3778 420.672 30.3778C420.301 30.3778 419.97 30.4557 419.678 30.6115C419.39 30.764 419.161 30.9761 418.992 31.2479C418.826 31.5163 418.743 31.8229 418.743 32.1676V37H417.57ZM425.649 37.1591C424.959 37.1591 424.355 36.995 423.834 36.6669C423.317 36.3388 422.913 35.8797 422.621 35.2898C422.333 34.6998 422.189 34.0104 422.189 33.2216C422.189 32.4261 422.333 31.7318 422.621 31.1385C422.913 30.5452 423.317 30.0845 423.834 29.7564C424.355 29.4283 424.959 29.2642 425.649 29.2642C426.338 29.2642 426.941 29.4283 427.458 29.7564C427.979 30.0845 428.383 30.5452 428.672 31.1385C428.963 31.7318 429.109 32.4261 429.109 33.2216C429.109 34.0104 428.963 34.6998 428.672 35.2898C428.383 35.8797 427.979 36.3388 427.458 36.6669C426.941 36.995 426.338 37.1591 425.649 37.1591ZM425.649 36.1051C426.172 36.1051 426.603 35.9709 426.941 35.7024C427.279 35.4339 427.53 35.081 427.692 34.6435C427.855 34.206 427.936 33.732 427.936 33.2216C427.936 32.7112 427.855 32.2356 427.692 31.7947C427.53 31.3539 427.279 30.9976 426.941 30.7259C426.603 30.4541 426.172 30.3182 425.649 30.3182C425.125 30.3182 424.694 30.4541 424.356 30.7259C424.018 30.9976 423.768 31.3539 423.605 31.7947C423.443 32.2356 423.362 32.7112 423.362 33.2216C423.362 33.732 423.443 34.206 423.605 34.6435C423.768 35.081 424.018 35.4339 424.356 35.7024C424.694 35.9709 425.125 36.1051 425.649 36.1051ZM430.9 29.3636H432.073V37.5568C432.073 38.0275 431.992 38.4351 431.83 38.7798C431.671 39.1245 431.429 39.3913 431.104 39.5803C430.782 39.7692 430.376 39.8636 429.886 39.8636C429.846 39.8636 429.806 39.8636 429.767 39.8636C429.727 39.8636 429.687 39.8636 429.647 39.8636V38.7699C429.687 38.7699 429.723 38.7699 429.757 38.7699C429.79 38.7699 429.826 38.7699 429.866 38.7699C430.224 38.7699 430.486 38.6638 430.651 38.4517C430.817 38.2429 430.9 37.9446 430.9 37.5568V29.3636ZM431.477 28.0909C431.248 28.0909 431.051 28.013 430.885 27.8572C430.723 27.7015 430.642 27.5142 430.642 27.2955C430.642 27.0767 430.723 26.8894 430.885 26.7337C431.051 26.5779 431.248 26.5 431.477 26.5C431.705 26.5 431.901 26.5779 432.063 26.7337C432.229 26.8894 432.312 27.0767 432.312 27.2955C432.312 27.5142 432.229 27.7015 432.063 27.8572C431.901 28.013 431.705 28.0909 431.477 28.0909ZM437.424 37.1591C436.688 37.1591 436.054 36.9967 435.52 36.6719C434.99 36.3438 434.58 35.8864 434.292 35.2997C434.007 34.7098 433.864 34.0237 433.864 33.2415C433.864 32.4593 434.007 31.7699 434.292 31.1733C434.58 30.5734 434.981 30.1061 435.495 29.7713C436.012 29.4332 436.615 29.2642 437.305 29.2642C437.702 29.2642 438.095 29.3305 438.483 29.4631C438.871 29.5956 439.224 29.8111 439.542 30.1094C439.86 30.4044 440.114 30.7955 440.303 31.2827C440.491 31.7699 440.586 32.3698 440.586 33.0824V33.5795H434.7V32.5653H439.393C439.393 32.1345 439.307 31.75 439.134 31.4119C438.965 31.0739 438.723 30.8071 438.408 30.6115C438.097 30.416 437.729 30.3182 437.305 30.3182C436.837 30.3182 436.433 30.4342 436.092 30.6662C435.754 30.8949 435.493 31.1932 435.311 31.5611C435.129 31.929 435.038 32.3234 435.038 32.7443V33.4205C435.038 33.9972 435.137 34.486 435.336 34.8871C435.538 35.2848 435.818 35.5881 436.176 35.7969C436.534 36.0024 436.95 36.1051 437.424 36.1051C437.732 36.1051 438.011 36.062 438.259 35.9759C438.511 35.8864 438.728 35.7538 438.911 35.5781C439.093 35.3991 439.234 35.1771 439.333 34.9119L440.467 35.2301C440.347 35.6146 440.147 35.9527 439.865 36.2443C439.583 36.5327 439.235 36.758 438.821 36.9205C438.407 37.0795 437.941 37.1591 437.424 37.1591ZM445.473 37.1591C444.757 37.1591 444.141 36.9901 443.624 36.652C443.107 36.3139 442.709 35.8482 442.43 35.255C442.152 34.6617 442.013 33.9839 442.013 33.2216C442.013 32.446 442.155 31.7616 442.44 31.1683C442.729 30.5717 443.13 30.1061 443.643 29.7713C444.161 29.4332 444.764 29.2642 445.453 29.2642C445.99 29.2642 446.474 29.3636 446.905 29.5625C447.336 29.7614 447.689 30.0398 447.964 30.3977C448.239 30.7557 448.41 31.1733 448.476 31.6506H447.303C447.213 31.3026 447.014 30.9943 446.706 30.7259C446.401 30.4541 445.99 30.3182 445.473 30.3182C445.016 30.3182 444.615 30.4375 444.27 30.6761C443.929 30.9115 443.662 31.2446 443.469 31.6754C443.281 32.103 443.186 32.6051 443.186 33.1818C443.186 33.7718 443.279 34.2855 443.464 34.723C443.653 35.1605 443.919 35.5002 444.26 35.7422C444.605 35.9841 445.009 36.1051 445.473 36.1051C445.778 36.1051 446.055 36.0521 446.303 35.946C446.552 35.84 446.762 35.6875 446.935 35.4886C447.107 35.2898 447.23 35.0511 447.303 34.7727H448.476C448.41 35.2235 448.246 35.6295 447.984 35.9908C447.725 36.3487 447.382 36.6338 446.955 36.8459C446.53 37.0547 446.036 37.1591 445.473 37.1591ZM453.512 29.3636V30.358H449.555V29.3636H453.512ZM450.708 27.5341H451.881V34.8125C451.881 35.1439 451.929 35.3925 452.026 35.5582C452.125 35.7206 452.251 35.83 452.403 35.8864C452.559 35.9394 452.723 35.9659 452.896 35.9659C453.025 35.9659 453.131 35.9593 453.214 35.946C453.297 35.9295 453.363 35.9162 453.413 35.9062L453.651 36.9602C453.572 36.9901 453.461 37.0199 453.318 37.0497C453.176 37.0829 452.995 37.0994 452.776 37.0994C452.445 37.0994 452.12 37.0282 451.802 36.8857C451.487 36.7431 451.225 36.526 451.016 36.2344C450.811 35.9427 450.708 35.5748 450.708 35.1307V27.5341Z" fill="black" fill-opacity="0.9"/>
<path d="M331.504 14V3.81818H338.126V5.36435H333.349V8.12855H337.783V9.67472H333.349V12.4538H338.166V14H331.504ZM341.728 9.52557V14H339.929V6.36364H341.649V7.66122H341.738C341.914 7.23366 342.194 6.89394 342.578 6.64205C342.966 6.39015 343.445 6.2642 344.015 6.2642C344.542 6.2642 345.001 6.37689 345.392 6.60227C345.787 6.82765 346.092 7.15412 346.307 7.58168C346.526 8.00923 346.634 8.52794 346.63 9.13778V14H344.831V9.41619C344.831 8.90578 344.698 8.50639 344.433 8.21804C344.171 7.92969 343.808 7.78551 343.344 7.78551C343.029 7.78551 342.749 7.85511 342.504 7.99432C342.262 8.13021 342.071 8.32741 341.932 8.58594C341.796 8.84446 341.728 9.15767 341.728 9.52557ZM351.781 17.0227C351.135 17.0227 350.579 16.9349 350.115 16.7592C349.651 16.5869 349.279 16.3549 348.997 16.0632C348.715 15.7715 348.52 15.4484 348.41 15.0938L350.031 14.701C350.104 14.8501 350.21 14.9976 350.349 15.1435C350.488 15.2926 350.676 15.4152 350.911 15.5114C351.15 15.6108 351.449 15.6605 351.811 15.6605C352.321 15.6605 352.744 15.5362 353.078 15.2876C353.413 15.0424 353.581 14.638 353.581 14.0746V12.6278H353.491C353.398 12.8134 353.262 13.004 353.083 13.1996C352.908 13.3951 352.674 13.5592 352.382 13.6918C352.094 13.8243 351.731 13.8906 351.294 13.8906C350.707 13.8906 350.175 13.7531 349.698 13.478C349.224 13.1996 348.846 12.7853 348.564 12.2351C348.286 11.6816 348.147 10.9889 348.147 10.157C348.147 9.31842 348.286 8.6108 348.564 8.03409C348.846 7.45407 349.225 7.01491 349.703 6.71662C350.18 6.41501 350.712 6.2642 351.299 6.2642C351.746 6.2642 352.114 6.34044 352.402 6.4929C352.694 6.64205 352.926 6.82268 353.098 7.0348C353.271 7.24361 353.402 7.44081 353.491 7.62642H353.591V6.36364H355.365V14.1243C355.365 14.7772 355.21 15.3175 354.898 15.745C354.587 16.1726 354.161 16.4924 353.62 16.7045C353.08 16.9167 352.467 17.0227 351.781 17.0227ZM351.796 12.4787C352.177 12.4787 352.502 12.3859 352.77 12.2003C353.039 12.0147 353.243 11.7479 353.382 11.3999C353.521 11.0518 353.591 10.6342 353.591 10.147C353.591 9.66643 353.521 9.2455 353.382 8.88423C353.246 8.52296 353.044 8.2429 352.775 8.04403C352.51 7.84186 352.184 7.74077 351.796 7.74077C351.395 7.74077 351.06 7.84517 350.792 8.05398C350.523 8.26278 350.321 8.54948 350.185 8.91406C350.049 9.27533 349.981 9.68632 349.981 10.147C349.981 10.6143 350.049 11.0237 350.185 11.375C350.324 11.723 350.528 11.9948 350.797 12.1903C351.068 12.3826 351.401 12.4787 351.796 12.4787ZM359.407 14.1541C358.923 14.1541 358.488 14.0679 358.1 13.8956C357.715 13.7199 357.41 13.4614 357.185 13.12C356.963 12.7786 356.852 12.3577 356.852 11.8572C356.852 11.4264 356.931 11.0701 357.091 10.7884C357.25 10.5066 357.467 10.2812 357.742 10.1122C358.017 9.94318 358.327 9.81558 358.672 9.7294C359.02 9.63991 359.379 9.57528 359.75 9.53551C360.198 9.48911 360.561 9.44768 360.839 9.41122C361.118 9.37145 361.32 9.31179 361.446 9.23224C361.575 9.14938 361.64 9.02178 361.64 8.84943V8.8196C361.64 8.44508 361.529 8.15507 361.306 7.94957C361.084 7.74408 360.765 7.64134 360.347 7.64134C359.906 7.64134 359.556 7.73745 359.298 7.92969C359.043 8.12192 358.87 8.34896 358.781 8.6108L357.1 8.37216C357.233 7.90814 357.452 7.52036 357.757 7.20881C358.062 6.89394 358.435 6.65862 358.875 6.50284C359.316 6.34375 359.803 6.2642 360.337 6.2642C360.705 6.2642 361.071 6.30729 361.436 6.39347C361.8 6.47964 362.133 6.62216 362.435 6.82102C362.737 7.01657 362.979 7.28338 363.161 7.62145C363.346 7.95952 363.439 8.3821 363.439 8.8892V14H361.709V12.951H361.65C361.54 13.1631 361.386 13.362 361.187 13.5476C360.992 13.7299 360.745 13.8774 360.446 13.9901C360.151 14.0994 359.805 14.1541 359.407 14.1541ZM359.875 12.8317C360.236 12.8317 360.549 12.7604 360.814 12.6179C361.079 12.4721 361.283 12.2798 361.426 12.0412C361.572 11.8026 361.645 11.5424 361.645 11.2607V10.3608C361.588 10.4072 361.492 10.4503 361.356 10.4901C361.224 10.5298 361.074 10.5646 360.909 10.5945C360.743 10.6243 360.579 10.6508 360.417 10.674C360.254 10.6972 360.113 10.7171 359.994 10.7337C359.725 10.7701 359.485 10.8298 359.273 10.9126C359.061 10.9955 358.894 11.1115 358.771 11.2607C358.648 11.4065 358.587 11.5954 358.587 11.8274C358.587 12.1589 358.708 12.4091 358.95 12.5781C359.192 12.7472 359.5 12.8317 359.875 12.8317ZM368.57 17.0227C367.924 17.0227 367.368 16.9349 366.904 16.7592C366.44 16.5869 366.068 16.3549 365.786 16.0632C365.504 15.7715 365.309 15.4484 365.199 15.0938L366.82 14.701C366.893 14.8501 366.999 14.9976 367.138 15.1435C367.277 15.2926 367.465 15.4152 367.7 15.5114C367.939 15.6108 368.239 15.6605 368.6 15.6605C369.11 15.6605 369.533 15.5362 369.868 15.2876C370.202 15.0424 370.37 14.638 370.37 14.0746V12.6278H370.28C370.187 12.8134 370.051 13.004 369.873 13.1996C369.697 13.3951 369.463 13.5592 369.172 13.6918C368.883 13.8243 368.52 13.8906 368.083 13.8906C367.496 13.8906 366.964 13.7531 366.487 13.478C366.013 13.1996 365.635 12.7853 365.353 12.2351C365.075 11.6816 364.936 10.9889 364.936 10.157C364.936 9.31842 365.075 8.6108 365.353 8.03409C365.635 7.45407 366.015 7.01491 366.492 6.71662C366.969 6.41501 367.501 6.2642 368.088 6.2642C368.535 6.2642 368.903 6.34044 369.191 6.4929C369.483 6.64205 369.715 6.82268 369.887 7.0348C370.06 7.24361 370.191 7.44081 370.28 7.62642H370.38V6.36364H372.154V14.1243C372.154 14.7772 371.999 15.3175 371.687 15.745C371.376 16.1726 370.95 16.4924 370.409 16.7045C369.869 16.9167 369.256 17.0227 368.57 17.0227ZM368.585 12.4787C368.966 12.4787 369.291 12.3859 369.559 12.2003C369.828 12.0147 370.032 11.7479 370.171 11.3999C370.31 11.0518 370.38 10.6342 370.38 10.147C370.38 9.66643 370.31 9.2455 370.171 8.88423C370.035 8.52296 369.833 8.2429 369.564 8.04403C369.299 7.84186 368.973 7.74077 368.585 7.74077C368.184 7.74077 367.849 7.84517 367.581 8.05398C367.312 8.26278 367.11 8.54948 366.974 8.91406C366.838 9.27533 366.77 9.68632 366.77 10.147C366.77 10.6143 366.838 11.0237 366.974 11.375C367.113 11.723 367.317 11.9948 367.586 12.1903C367.857 12.3826 368.19 12.4787 368.585 12.4787ZM377.38 14.1491C376.614 14.1491 375.953 13.9901 375.396 13.6719C374.842 13.3504 374.417 12.8963 374.118 12.3097C373.82 11.7197 373.671 11.0253 373.671 10.2266C373.671 9.44105 373.82 8.75166 374.118 8.15838C374.42 7.56179 374.841 7.09777 375.381 6.76633C375.921 6.43158 376.556 6.2642 377.285 6.2642C377.756 6.2642 378.2 6.34044 378.618 6.4929C379.038 6.64205 379.41 6.87405 379.731 7.18892C380.056 7.50379 380.311 7.90483 380.497 8.39205C380.682 8.87595 380.775 9.45265 380.775 10.1222V10.674H374.516V9.46094H379.05C379.047 9.11624 378.972 8.80966 378.826 8.54119C378.681 8.26941 378.477 8.05563 378.215 7.89986C377.956 7.74408 377.655 7.66619 377.31 7.66619C376.942 7.66619 376.619 7.75568 376.341 7.93466C376.062 8.11032 375.845 8.34233 375.689 8.63068C375.537 8.91572 375.459 9.22893 375.456 9.57031V10.6293C375.456 11.0734 375.537 11.4545 375.699 11.7727C375.862 12.0876 376.089 12.3295 376.38 12.4986C376.672 12.6643 377.013 12.7472 377.404 12.7472C377.666 12.7472 377.903 12.7107 378.115 12.6378C378.328 12.5616 378.511 12.4505 378.667 12.3047C378.823 12.1589 378.941 11.9782 379.02 11.7628L380.701 11.9517C380.595 12.3958 380.392 12.7836 380.094 13.1151C379.799 13.4432 379.421 13.6984 378.961 13.8807C378.5 14.0597 377.973 14.1491 377.38 14.1491ZM382.298 14V6.36364H384.018V7.66122H384.107C384.267 7.22372 384.53 6.88234 384.898 6.63707C385.266 6.38849 385.705 6.2642 386.215 6.2642C386.732 6.2642 387.168 6.39015 387.523 6.64205C387.881 6.89062 388.133 7.23035 388.279 7.66122H388.358C388.527 7.23698 388.812 6.89891 389.213 6.64702C389.618 6.39181 390.097 6.2642 390.65 6.2642C391.353 6.2642 391.926 6.48627 392.37 6.9304C392.814 7.37453 393.036 8.02249 393.036 8.87429V14H391.232V9.1527C391.232 8.67874 391.106 8.33239 390.854 8.11364C390.602 7.89157 390.294 7.78054 389.929 7.78054C389.495 7.78054 389.155 7.91643 388.91 8.18821C388.668 8.45668 388.547 8.80634 388.547 9.23722V14H386.782V9.07812C386.782 8.68371 386.663 8.36884 386.424 8.13352C386.189 7.8982 385.881 7.78054 385.499 7.78054C385.241 7.78054 385.006 7.84683 384.794 7.9794C384.581 8.10866 384.412 8.29261 384.286 8.53125C384.16 8.76657 384.097 9.04167 384.097 9.35653V14H382.298ZM398.243 14.1491C397.477 14.1491 396.816 13.9901 396.259 13.6719C395.706 13.3504 395.28 12.8963 394.982 12.3097C394.683 11.7197 394.534 11.0253 394.534 10.2266C394.534 9.44105 394.683 8.75166 394.982 8.15838C395.283 7.56179 395.704 7.09777 396.244 6.76633C396.785 6.43158 397.419 6.2642 398.148 6.2642C398.619 6.2642 399.063 6.34044 399.481 6.4929C399.902 6.64205 400.273 6.87405 400.594 7.18892C400.919 7.50379 401.174 7.90483 401.36 8.39205C401.546 8.87595 401.638 9.45265 401.638 10.1222V10.674H395.379V9.46094H399.913C399.91 9.11624 399.835 8.80966 399.69 8.54119C399.544 8.26941 399.34 8.05563 399.078 7.89986C398.82 7.74408 398.518 7.66619 398.173 7.66619C397.805 7.66619 397.482 7.75568 397.204 7.93466C396.925 8.11032 396.708 8.34233 396.553 8.63068C396.4 8.91572 396.322 9.22893 396.319 9.57031V10.6293C396.319 11.0734 396.4 11.4545 396.562 11.7727C396.725 12.0876 396.952 12.3295 397.244 12.4986C397.535 12.6643 397.877 12.7472 398.268 12.7472C398.53 12.7472 398.767 12.7107 398.979 12.6378C399.191 12.5616 399.375 12.4505 399.531 12.3047C399.686 12.1589 399.804 11.9782 399.884 11.7628L401.564 11.9517C401.458 12.3958 401.256 12.7836 400.957 13.1151C400.662 13.4432 400.285 13.6984 399.824 13.8807C399.363 14.0597 398.836 14.1491 398.243 14.1491ZM404.961 9.52557V14H403.161V6.36364H404.881V7.66122H404.971C405.146 7.23366 405.426 6.89394 405.811 6.64205C406.199 6.39015 406.678 6.2642 407.248 6.2642C407.775 6.2642 408.234 6.37689 408.625 6.60227C409.019 6.82765 409.324 7.15412 409.54 7.58168C409.758 8.00923 409.866 8.52794 409.863 9.13778V14H408.063V9.41619C408.063 8.90578 407.93 8.50639 407.665 8.21804C407.403 7.92969 407.041 7.78551 406.577 7.78551C406.262 7.78551 405.982 7.85511 405.736 7.99432C405.494 8.13021 405.304 8.32741 405.165 8.58594C405.029 8.84446 404.961 9.15767 404.961 9.52557ZM415.506 6.36364V7.75568H411.116V6.36364H415.506ZM412.199 4.53409H413.999V11.7031C413.999 11.9451 414.036 12.1307 414.108 12.2599C414.185 12.3859 414.284 12.4721 414.407 12.5185C414.529 12.5649 414.665 12.5881 414.814 12.5881C414.927 12.5881 415.03 12.5798 415.123 12.5632C415.219 12.5466 415.292 12.5317 415.341 12.5185L415.645 13.9254C415.549 13.9586 415.411 13.995 415.232 14.0348C415.056 14.0746 414.841 14.0978 414.586 14.1044C414.135 14.1177 413.729 14.0497 413.368 13.9006C413.006 13.7481 412.72 13.5128 412.508 13.1946C412.299 12.8764 412.196 12.4787 412.199 12.0014V4.53409ZM420.115 5.36435V3.81818H428.239V5.36435H425.092V14H423.262V5.36435H420.115ZM429.969 16.8636C429.724 16.8636 429.497 16.8438 429.288 16.804C429.083 16.7675 428.918 16.7244 428.796 16.6747L429.213 15.2727C429.475 15.349 429.709 15.3854 429.914 15.3821C430.12 15.3788 430.301 15.3142 430.456 15.1882C430.615 15.0656 430.75 14.8601 430.859 14.5717L431.013 14.1591L428.244 6.36364H430.153L431.913 12.1307H431.993L433.757 6.36364H435.672L432.614 14.9247C432.471 15.3291 432.283 15.6754 432.047 15.9638C431.812 16.2554 431.524 16.4775 431.182 16.63C430.844 16.7857 430.44 16.8636 429.969 16.8636ZM436.917 16.8636V6.36364H438.687V7.62642H438.791C438.884 7.44081 439.015 7.24361 439.184 7.0348C439.353 6.82268 439.582 6.64205 439.87 6.4929C440.158 6.34044 440.526 6.2642 440.974 6.2642C441.564 6.2642 442.096 6.41501 442.57 6.71662C443.047 7.01491 443.425 7.45739 443.703 8.04403C443.985 8.62737 444.126 9.34328 444.126 10.1918C444.126 11.0303 443.988 11.7429 443.713 12.3295C443.438 12.9162 443.063 13.3636 442.589 13.6719C442.116 13.9801 441.579 14.1342 440.979 14.1342C440.541 14.1342 440.178 14.0613 439.89 13.9155C439.602 13.7696 439.37 13.594 439.194 13.3885C439.022 13.1797 438.887 12.9825 438.791 12.7969H438.717V16.8636H436.917ZM438.682 10.1818C438.682 10.6757 438.751 11.1082 438.891 11.4794C439.033 11.8506 439.237 12.1406 439.502 12.3494C439.771 12.5549 440.095 12.6577 440.477 12.6577C440.874 12.6577 441.207 12.5516 441.476 12.3395C441.744 12.1241 441.946 11.8307 442.082 11.4595C442.222 11.085 442.291 10.6591 442.291 10.1818C442.291 9.70786 442.223 9.28693 442.087 8.91903C441.951 8.55114 441.749 8.26278 441.481 8.05398C441.212 7.84517 440.878 7.74077 440.477 7.74077C440.092 7.74077 439.766 7.84186 439.497 8.04403C439.229 8.24621 439.025 8.52959 438.886 8.89418C438.75 9.25876 438.682 9.68797 438.682 10.1818ZM449.048 14.1491C448.282 14.1491 447.621 13.9901 447.064 13.6719C446.51 13.3504 446.085 12.8963 445.786 12.3097C445.488 11.7197 445.339 11.0253 445.339 10.2266C445.339 9.44105 445.488 8.75166 445.786 8.15838C446.088 7.56179 446.509 7.09777 447.049 6.76633C447.589 6.43158 448.224 6.2642 448.953 6.2642C449.424 6.2642 449.868 6.34044 450.286 6.4929C450.706 6.64205 451.078 6.87405 451.399 7.18892C451.724 7.50379 451.979 7.90483 452.165 8.39205C452.35 8.87595 452.443 9.45265 452.443 10.1222V10.674H446.184V9.46094H450.718C450.715 9.11624 450.64 8.80966 450.494 8.54119C450.348 8.26941 450.145 8.05563 449.883 7.89986C449.624 7.74408 449.323 7.66619 448.978 7.66619C448.61 7.66619 448.287 7.75568 448.009 7.93466C447.73 8.11032 447.513 8.34233 447.357 8.63068C447.205 8.91572 447.127 9.22893 447.124 9.57031V10.6293C447.124 11.0734 447.205 11.4545 447.367 11.7727C447.53 12.0876 447.757 12.3295 448.048 12.4986C448.34 12.6643 448.681 12.7472 449.072 12.7472C449.334 12.7472 449.571 12.7107 449.783 12.6378C449.996 12.5616 450.179 12.4505 450.335 12.3047C450.491 12.1589 450.609 11.9782 450.688 11.7628L452.369 11.9517C452.263 12.3958 452.06 12.7836 451.762 13.1151C451.467 13.4432 451.089 13.6984 450.629 13.8807C450.168 14.0597 449.641 14.1491 449.048 14.1491Z" fill="black" fill-opacity="0.9"/>
<path d="M331.991 48.9091C331.991 47.6562 332.154 46.5045 332.479 45.4538C332.807 44.3999 333.274 43.4304 333.881 42.5455H334.915C334.676 42.8736 334.452 43.2779 334.244 43.7585C334.038 44.2358 333.857 44.7611 333.702 45.3345C333.546 45.9046 333.423 46.4946 333.334 47.1044C333.248 47.7143 333.205 48.3158 333.205 48.9091C333.205 49.6979 333.281 50.4983 333.433 51.3104C333.586 52.1224 333.791 52.8764 334.05 53.5724C334.308 54.2685 334.597 54.8352 334.915 55.2727H333.881C333.274 54.3878 332.807 53.42 332.479 52.3693C332.154 51.3153 331.991 50.1619 331.991 48.9091ZM338.038 43.8182V54H336.805V43.8182H338.038ZM341.525 49.4062V54H340.351V46.3636H341.485V47.5568H341.584C341.763 47.169 342.035 46.8575 342.4 46.6222C342.764 46.3835 343.235 46.2642 343.811 46.2642C344.328 46.2642 344.781 46.3703 345.169 46.5824C345.556 46.7912 345.858 47.1094 346.074 47.5369C346.289 47.9612 346.397 48.4981 346.397 49.1477V54H345.223V49.2273C345.223 48.6274 345.068 48.16 344.756 47.8253C344.444 47.4872 344.017 47.3182 343.473 47.3182C343.099 47.3182 342.764 47.3994 342.469 47.5618C342.177 47.7242 341.947 47.9612 341.778 48.2727C341.609 48.5843 341.525 48.9621 341.525 49.4062ZM351.424 54.1591C350.788 54.1591 350.226 53.9983 349.739 53.6768C349.252 53.352 348.87 52.8946 348.595 52.3047C348.32 51.7114 348.183 51.0104 348.183 50.2017C348.183 49.3996 348.32 48.7036 348.595 48.1136C348.87 47.5237 349.253 47.0679 349.744 46.7464C350.234 46.425 350.801 46.2642 351.444 46.2642C351.941 46.2642 352.334 46.3471 352.622 46.5128C352.914 46.6752 353.136 46.8608 353.289 47.0696C353.444 47.2751 353.565 47.4441 353.651 47.5767H353.751V43.8182H354.924V54H353.791V52.8267H353.651C353.565 52.9659 353.443 53.1416 353.284 53.3537C353.124 53.5625 352.897 53.7498 352.602 53.9155C352.307 54.0779 351.915 54.1591 351.424 54.1591ZM351.583 53.1051C352.054 53.1051 352.452 52.9825 352.776 52.7372C353.101 52.4886 353.348 52.1456 353.517 51.7081C353.686 51.2673 353.771 50.7585 353.771 50.1818C353.771 49.6117 353.688 49.1129 353.522 48.6854C353.356 48.2545 353.111 47.9197 352.786 47.6811C352.462 47.4392 352.061 47.3182 351.583 47.3182C351.086 47.3182 350.672 47.4458 350.34 47.701C350.012 47.9529 349.765 48.2959 349.6 48.7301C349.437 49.161 349.356 49.6449 349.356 50.1818C349.356 50.7254 349.439 51.2192 349.605 51.6634C349.774 52.1042 350.022 52.4555 350.35 52.7173C350.682 52.9759 351.093 53.1051 351.583 53.1051ZM362.048 50.8778V46.3636H363.222V54H362.048V52.7074H361.969C361.79 53.0952 361.512 53.425 361.134 53.6967C360.756 53.9652 360.279 54.0994 359.702 54.0994C359.225 54.0994 358.8 53.995 358.429 53.7862C358.058 53.5741 357.766 53.2559 357.554 52.8317C357.342 52.4041 357.236 51.8655 357.236 51.2159V46.3636H358.409V51.1364C358.409 51.6932 358.565 52.1373 358.877 52.4688C359.191 52.8002 359.593 52.9659 360.08 52.9659C360.371 52.9659 360.668 52.8913 360.97 52.7422C361.275 52.593 361.53 52.3643 361.735 52.0561C361.944 51.7479 362.048 51.3551 362.048 50.8778ZM370.78 48.0739L369.726 48.3722C369.66 48.1965 369.562 48.0258 369.433 47.8601C369.307 47.6911 369.134 47.5518 368.915 47.4425C368.697 47.3331 368.417 47.2784 368.075 47.2784C367.608 47.2784 367.219 47.3861 366.907 47.6016C366.599 47.8137 366.445 48.0838 366.445 48.4119C366.445 48.7036 366.551 48.9339 366.763 49.103C366.975 49.272 367.306 49.4129 367.757 49.5256L368.891 49.804C369.573 49.9697 370.082 50.2232 370.417 50.5646C370.752 50.9027 370.919 51.3385 370.919 51.8722C370.919 52.3097 370.793 52.7008 370.541 53.0455C370.293 53.3902 369.945 53.6619 369.497 53.8608C369.05 54.0597 368.529 54.1591 367.936 54.1591C367.157 54.1591 366.513 53.9901 366.002 53.652C365.492 53.3139 365.169 52.8201 365.033 52.1705L366.146 51.892C366.252 52.303 366.453 52.6113 366.748 52.8168C367.046 53.0223 367.436 53.125 367.916 53.125C368.463 53.125 368.897 53.009 369.219 52.777C369.544 52.5417 369.706 52.2599 369.706 51.9318C369.706 51.6667 369.613 51.4446 369.428 51.2656C369.242 51.0833 368.957 50.9474 368.572 50.858L367.3 50.5597C366.6 50.3939 366.087 50.1371 365.759 49.7891C365.434 49.4377 365.271 48.9986 365.271 48.4716C365.271 48.0407 365.392 47.6596 365.634 47.3281C365.879 46.9967 366.213 46.7365 366.634 46.5476C367.058 46.3587 367.538 46.2642 368.075 46.2642C368.831 46.2642 369.424 46.4299 369.855 46.7614C370.289 47.0928 370.598 47.5303 370.78 48.0739ZM376.006 46.3636V47.358H372.049V46.3636H376.006ZM373.202 44.5341H374.376V51.8125C374.376 52.1439 374.424 52.3925 374.52 52.5582C374.619 52.7206 374.745 52.83 374.898 52.8864C375.053 52.9394 375.217 52.9659 375.39 52.9659C375.519 52.9659 375.625 52.9593 375.708 52.946C375.791 52.9295 375.857 52.9162 375.907 52.9062L376.145 53.9602C376.066 53.9901 375.955 54.0199 375.812 54.0497C375.67 54.0829 375.489 54.0994 375.27 54.0994C374.939 54.0994 374.614 54.0282 374.296 53.8857C373.981 53.7431 373.719 53.526 373.51 53.2344C373.305 52.9427 373.202 52.5748 373.202 52.1307V44.5341ZM377.771 54V46.3636H378.905V47.517H378.984C379.123 47.1392 379.375 46.8326 379.74 46.5973C380.104 46.362 380.515 46.2443 380.973 46.2443C381.059 46.2443 381.167 46.246 381.296 46.2493C381.425 46.2526 381.523 46.2576 381.589 46.2642V47.4574C381.55 47.4474 381.458 47.4325 381.316 47.4126C381.177 47.3894 381.029 47.3778 380.873 47.3778C380.502 47.3778 380.171 47.4557 379.879 47.6115C379.591 47.764 379.362 47.9761 379.193 48.2479C379.027 48.5163 378.944 48.8229 378.944 49.1676V54H377.771ZM383.968 56.8636C383.769 56.8636 383.592 56.8471 383.436 56.8139C383.28 56.7841 383.173 56.7543 383.113 56.7244L383.411 55.6903C383.696 55.7633 383.948 55.7898 384.167 55.7699C384.386 55.75 384.58 55.6522 384.749 55.4766C384.921 55.3042 385.079 55.0241 385.221 54.6364L385.44 54.0398L382.616 46.3636H383.889L385.997 52.4489H386.076L388.184 46.3636H389.457L386.215 55.1136C386.07 55.508 385.889 55.8345 385.673 56.093C385.458 56.3549 385.208 56.5488 384.923 56.6747C384.641 56.8007 384.323 56.8636 383.968 56.8636ZM395.102 43.8182H396.574L400.034 52.2699H400.153L403.613 43.8182H405.085V54H403.932V46.2642H403.832L400.65 54H399.537L396.355 46.2642H396.256V54H395.102V43.8182ZM410.6 54.1591C409.864 54.1591 409.229 53.9967 408.696 53.6719C408.165 53.3438 407.756 52.8864 407.468 52.2997C407.183 51.7098 407.04 51.0237 407.04 50.2415C407.04 49.4593 407.183 48.7699 407.468 48.1733C407.756 47.5734 408.157 47.1061 408.671 46.7713C409.188 46.4332 409.791 46.2642 410.48 46.2642C410.878 46.2642 411.271 46.3305 411.659 46.4631C412.047 46.5956 412.4 46.8111 412.718 47.1094C413.036 47.4044 413.289 47.7955 413.478 48.2827C413.667 48.7699 413.762 49.3698 413.762 50.0824V50.5795H407.875V49.5653H412.569C412.569 49.1345 412.482 48.75 412.31 48.4119C412.141 48.0739 411.899 47.8071 411.584 47.6115C411.273 47.416 410.905 47.3182 410.48 47.3182C410.013 47.3182 409.609 47.4342 409.267 47.6662C408.929 47.8949 408.669 48.1932 408.487 48.5611C408.305 48.929 408.213 49.3234 408.213 49.7443V50.4205C408.213 50.9972 408.313 51.486 408.512 51.8871C408.714 52.2848 408.994 52.5881 409.352 52.7969C409.71 53.0024 410.126 53.1051 410.6 53.1051C410.908 53.1051 411.186 53.062 411.435 52.9759C411.687 52.8864 411.904 52.7538 412.086 52.5781C412.269 52.3991 412.409 52.1771 412.509 51.9119L413.642 52.2301C413.523 52.6146 413.323 52.9527 413.041 53.2443C412.759 53.5327 412.411 53.758 411.997 53.9205C411.583 54.0795 411.117 54.1591 410.6 54.1591ZM416.72 49.4062V54H415.547V46.3636H416.68V47.5568H416.779C416.958 47.169 417.23 46.8575 417.595 46.6222C417.959 46.3835 418.43 46.2642 419.007 46.2642C419.524 46.2642 419.976 46.3703 420.364 46.5824C420.752 46.7912 421.053 47.1094 421.269 47.5369C421.484 47.9612 421.592 48.4981 421.592 49.1477V54H420.419V49.2273C420.419 48.6274 420.263 48.16 419.951 47.8253C419.64 47.4872 419.212 47.3182 418.669 47.3182C418.294 47.3182 417.959 47.3994 417.664 47.5618C417.373 47.7242 417.142 47.9612 416.973 48.2727C416.804 48.5843 416.72 48.9621 416.72 49.4062ZM427.057 46.3636V47.358H423.1V46.3636H427.057ZM424.253 44.5341H425.426V51.8125C425.426 52.1439 425.474 52.3925 425.57 52.5582C425.67 52.7206 425.796 52.83 425.948 52.8864C426.104 52.9394 426.268 52.9659 426.441 52.9659C426.57 52.9659 426.676 52.9593 426.759 52.946C426.842 52.9295 426.908 52.9162 426.958 52.9062L427.196 53.9602C427.117 53.9901 427.006 54.0199 426.863 54.0497C426.721 54.0829 426.54 54.0994 426.321 54.0994C425.99 54.0994 425.665 54.0282 425.347 53.8857C425.032 53.7431 424.77 53.526 424.561 53.2344C424.356 52.9427 424.253 52.5748 424.253 52.1307V44.5341ZM431.842 54.1591C431.153 54.1591 430.548 53.995 430.028 53.6669C429.51 53.3388 429.106 52.8797 428.814 52.2898C428.526 51.6998 428.382 51.0104 428.382 50.2216C428.382 49.4261 428.526 48.7318 428.814 48.1385C429.106 47.5452 429.51 47.0845 430.028 46.7564C430.548 46.4283 431.153 46.2642 431.842 46.2642C432.532 46.2642 433.135 46.4283 433.652 46.7564C434.172 47.0845 434.577 47.5452 434.865 48.1385C435.157 48.7318 435.302 49.4261 435.302 50.2216C435.302 51.0104 435.157 51.6998 434.865 52.2898C434.577 52.8797 434.172 53.3388 433.652 53.6669C433.135 53.995 432.532 54.1591 431.842 54.1591ZM431.842 53.1051C432.366 53.1051 432.797 52.9709 433.135 52.7024C433.473 52.4339 433.723 52.081 433.885 51.6435C434.048 51.206 434.129 50.732 434.129 50.2216C434.129 49.7112 434.048 49.2356 433.885 48.7947C433.723 48.3539 433.473 47.9976 433.135 47.7259C432.797 47.4541 432.366 47.3182 431.842 47.3182C431.318 47.3182 430.888 47.4541 430.55 47.7259C430.211 47.9976 429.961 48.3539 429.799 48.7947C429.636 49.2356 429.555 49.7112 429.555 50.2216C429.555 50.732 429.636 51.206 429.799 51.6435C429.961 52.081 430.211 52.4339 430.55 52.7024C430.888 52.9709 431.318 53.1051 431.842 53.1051ZM437.093 54V46.3636H438.227V47.517H438.306C438.446 47.1392 438.698 46.8326 439.062 46.5973C439.427 46.362 439.838 46.2443 440.295 46.2443C440.381 46.2443 440.489 46.246 440.618 46.2493C440.748 46.2526 440.845 46.2576 440.912 46.2642V47.4574C440.872 47.4474 440.781 47.4325 440.638 47.4126C440.499 47.3894 440.351 47.3778 440.196 47.3778C439.824 47.3778 439.493 47.4557 439.201 47.6115C438.913 47.764 438.684 47.9761 438.515 48.2479C438.35 48.5163 438.267 48.8229 438.267 49.1676V54H437.093ZM445.272 54.1591C444.536 54.1591 443.901 53.9967 443.368 53.6719C442.837 53.3438 442.428 52.8864 442.14 52.2997C441.855 51.7098 441.712 51.0237 441.712 50.2415C441.712 49.4593 441.855 48.7699 442.14 48.1733C442.428 47.5734 442.829 47.1061 443.343 46.7713C443.86 46.4332 444.463 46.2642 445.152 46.2642C445.55 46.2642 445.943 46.3305 446.331 46.4631C446.718 46.5956 447.071 46.8111 447.39 47.1094C447.708 47.4044 447.961 47.7955 448.15 48.2827C448.339 48.7699 448.434 49.3698 448.434 50.0824V50.5795H442.547V49.5653H447.24C447.24 49.1345 447.154 48.75 446.982 48.4119C446.813 48.0739 446.571 47.8071 446.256 47.6115C445.944 47.416 445.577 47.3182 445.152 47.3182C444.685 47.3182 444.281 47.4342 443.939 47.6662C443.601 47.8949 443.341 48.1932 443.159 48.5611C442.976 48.929 442.885 49.3234 442.885 49.7443V50.4205C442.885 50.9972 442.985 51.486 443.184 51.8871C443.386 52.2848 443.666 52.5881 444.024 52.7969C444.382 53.0024 444.798 53.1051 445.272 53.1051C445.58 53.1051 445.858 53.062 446.107 52.9759C446.359 52.8864 446.576 52.7538 446.758 52.5781C446.94 52.3991 447.081 52.1771 447.181 51.9119L448.314 52.2301C448.195 52.6146 447.994 52.9527 447.713 53.2443C447.431 53.5327 447.083 53.758 446.669 53.9205C446.254 54.0795 445.789 54.1591 445.272 54.1591ZM453.102 54.1591C452.466 54.1591 451.904 53.9983 451.417 53.6768C450.929 53.352 450.548 52.8946 450.273 52.3047C449.998 51.7114 449.86 51.0104 449.86 50.2017C449.86 49.3996 449.998 48.7036 450.273 48.1136C450.548 47.5237 450.931 47.0679 451.422 46.7464C451.912 46.425 452.479 46.2642 453.122 46.2642C453.619 46.2642 454.012 46.3471 454.3 46.5128C454.592 46.6752 454.814 46.8608 454.966 47.0696C455.122 47.2751 455.243 47.4441 455.329 47.5767H455.429V43.8182H456.602V54H455.468V52.8267H455.329C455.243 52.9659 455.12 53.1416 454.961 53.3537C454.802 53.5625 454.575 53.7498 454.28 53.9155C453.985 54.0779 453.592 54.1591 453.102 54.1591ZM453.261 53.1051C453.732 53.1051 454.129 52.9825 454.454 52.7372C454.779 52.4886 455.026 52.1456 455.195 51.7081C455.364 51.2673 455.449 50.7585 455.449 50.1818C455.449 49.6117 455.366 49.1129 455.2 48.6854C455.034 48.2545 454.789 47.9197 454.464 47.6811C454.139 47.4392 453.738 47.3182 453.261 47.3182C452.764 47.3182 452.35 47.4458 452.018 47.701C451.69 47.9529 451.443 48.2959 451.277 48.7301C451.115 49.161 451.034 49.6449 451.034 50.1818C451.034 50.7254 451.117 51.2192 451.282 51.6634C451.451 52.1042 451.7 52.4555 452.028 52.7173C452.359 52.9759 452.77 53.1051 453.261 53.1051ZM461.419 49.7045C461.419 50.9574 461.255 52.1108 460.927 53.1648C460.602 54.2154 460.137 55.1832 459.53 56.0682H458.496C458.735 55.7401 458.957 55.3357 459.162 54.8551C459.371 54.3778 459.553 53.8542 459.709 53.2841C459.865 52.7107 459.986 52.1191 460.072 51.5092C460.162 50.8961 460.206 50.2945 460.206 49.7045C460.206 48.9157 460.13 48.1153 459.978 47.3033C459.825 46.4912 459.62 45.7372 459.361 45.0412C459.103 44.3452 458.814 43.7784 458.496 43.3409H459.53C460.137 44.2259 460.602 45.1953 460.927 46.2493C461.255 47.3 461.419 48.4517 461.419 49.7045Z" fill="black" fill-opacity="0.6"/>
<defs>
<clipPath id="clip0_33_7059">
<rect width="36" height="36" fill="white" transform="translate(284.5 3)"/>
</clipPath>
</defs>
</svg>
